<?xml version="1.0" standalone="no"?>
<!DOCTYPE svg PUBLIC "-//W3C//DTD SVG 20010904//EN"
 "http://www.w3.org/TR/2001/REC-SVG-20010904/DTD/svg10.dtd">
<svg version="1.0" xmlns="http://www.w3.org/2000/svg"
 width="300.000000pt" height="225.000000pt" viewBox="0 0 300.000000 225.000000"
 preserveAspectRatio="xMidYMid meet">
<metadata>
Created by potrace 1.10, written by Peter Selinger 2001-2011
</metadata>
<g transform="translate(0.000000,225.000000) scale(0.100000,-0.100000)"
fill="#000000" stroke="none">
<path d="M1024 2224 c-4 -14 -4 -51 -1 -82 4 -37 3 -51 -3 -42 -7 11 -10 2
-11 -30 -5 -312 -15 -456 -30 -466 -5 -3 -31 2 -57 10 -152 51 -290 78 -415
83 -80 4 -144 1 -173 -6 -34 -9 -50 -9 -60 -1 -7 7 -21 9 -31 6 -21 -6 -48 8
-40 21 3 5 2 15 -4 23 -5 10 -9 11 -9 3 0 -8 -7 -10 -17 -6 -16 6 -16 5 -4
-11 22 -27 -1 -41 -29 -16 -25 22 -35 26 -25 10 3 -5 8 -20 10 -31 5 -24 15
-39 15 -21 0 20 60 25 80 7 11 -10 17 -21 15 -26 -3 -4 0 -11 6 -14 5 -4 8
-13 5 -21 -3 -8 1 -14 10 -14 32 0 7 -24 -39 -37 -26 -7 -47 -16 -47 -18 0 -3
19 -4 43 -3 38 3 42 1 41 -19 0 -12 3 -20 7 -17 4 2 10 0 14 -6 3 -5 0 -10 -7
-11 -7 0 -3 -5 10 -11 18 -9 22 -17 17 -37 -4 -22 -3 -23 5 -8 6 9 17 17 24
17 18 0 58 -45 49 -55 -5 -5 0 -3 10 4 12 10 17 10 17 2 0 -7 4 -9 10 -6 14 9
-12 34 -29 27 -9 -3 -12 -1 -7 6 3 6 2 13 -4 17 -6 4 -8 11 -5 16 4 5 1 9 -4
9 -6 0 -11 -4 -11 -10 0 -15 -33 1 -57 29 -12 13 -19 29 -17 33 3 5 0 16 -8
25 -10 13 -10 17 0 20 17 6 15 23 -7 69 -27 54 -12 55 101 3 69 -31 109 -43
153 -45 83 -4 137 -13 229 -35 44 -10 82 -17 84 -14 2 2 -9 7 -24 10 -16 4
-51 13 -79 20 -58 16 -191 37 -250 40 -22 1 -69 15 -104 31 -58 25 -62 29 -40
35 39 11 230 10 295 -2 32 -6 88 -19 124 -29 36 -10 96 -26 133 -35 l69 -18
-53 -21 c-53 -21 -54 -22 -78 -91 l-24 -70 -71 -35 c-65 -32 -76 -35 -126 -28
-137 18 -136 18 -110 9 27 -10 20 -11 -52 -14 -32 -1 -49 2 -53 11 -3 7 0 10
5 7 6 -3 10 -1 10 5 0 7 -6 10 -14 7 -7 -3 -19 0 -26 6 -10 10 -10 8 -1 -10
15 -29 14 -33 -5 -33 -9 0 -12 5 -8 13 6 9 5 9 -8 0 -8 -7 -18 -10 -21 -6 -4
3 -7 0 -7 -8 0 -12 -2 -12 -9 0 -5 8 -8 23 -6 33 2 10 1 18 -3 19 -4 0 -15 2
-24 4 -16 3 -16 -1 3 -37 11 -22 19 -41 17 -41 -2 -1 -14 -8 -27 -15 -12 -8
-20 -9 -17 -3 9 13 -29 46 -54 47 -10 1 -21 -4 -23 -11 -3 -7 4 -10 23 -7 26
4 49 -12 36 -25 -3 -3 -27 -7 -53 -8 -26 -1 -61 -6 -78 -10 -27 -8 -29 -7 -16
9 8 9 21 16 30 15 29 -3 36 1 21 11 -12 7 -10 11 10 19 14 5 19 10 12 10 -7 1
-24 -6 -38 -15 -13 -9 -28 -14 -31 -10 -4 3 -13 -8 -20 -25 -11 -26 -17 -30
-37 -25 -23 6 -23 4 -20 -59 1 -35 5 -68 8 -74 3 -5 3 -11 -1 -14 -5 -2 -2 -2
6 0 8 2 11 -2 7 -12 -4 -11 -2 -14 6 -9 15 9 58 12 53 3 -3 -3 34 -12 80 -19
46 -7 83 -16 81 -19 -2 -3 28 -7 68 -7 l71 -1 -55 14 c-30 8 -67 14 -82 14
-19 -1 -28 4 -28 14 0 13 -4 14 -21 5 -26 -14 -49 -6 -49 17 0 15 -2 15 -9 4
-8 -12 -14 -13 -36 -3 -22 10 -30 10 -43 0 -13 -11 -15 -10 -9 4 4 12 2 15 -7
12 -17 -7 -29 36 -14 53 6 7 7 13 3 13 -4 0 -2 7 5 15 8 9 8 15 2 15 -6 0 -15
-12 -20 -27 -6 -16 -11 -23 -11 -16 -2 23 19 64 29 58 6 -4 17 -1 25 5 16 14
71 16 130 6 30 -5 35 -4 20 4 -16 8 -13 9 18 7 25 -2 36 1 33 8 -5 14 88 46
129 44 17 -1 81 1 143 5 63 3 111 2 108 -3 -3 -4 -30 -25 -61 -46 -60 -42 -64
-52 -38 -96 17 -28 17 -29 -12 -59 -16 -17 -49 -42 -72 -56 -24 -14 -41 -29
-38 -34 3 -6 0 -7 -8 -4 -16 6 -113 -78 -122 -107 -4 -11 3 -49 14 -84 12 -35
21 -66 21 -68 0 -2 -13 -2 -30 1 -32 5 -37 11 -18 30 6 6 9 14 6 17 -3 3 -13
-1 -21 -9 -16 -16 -51 -11 -41 5 3 5 -6 13 -20 19 -14 5 -26 13 -26 17 0 5
-10 8 -22 9 -13 0 -41 9 -63 18 -40 18 -40 18 -20 -2 11 -11 22 -18 24 -16 2
2 25 -8 51 -21 26 -13 50 -22 53 -19 3 3 4 -2 3 -12 -1 -16 34 -32 106 -48 38
-8 108 -148 109 -215 0 -25 8 -99 17 -163 19 -126 18 -128 -32 -108 -19 7 -24
14 -19 27 6 17 5 16 -15 -1 -19 -17 -22 -17 -22 -3 0 10 -3 16 -7 16 -23 -4
-33 3 -34 24 -1 16 -2 18 -6 5 -5 -21 -18 -22 -62 -7 -30 10 -43 29 -20 29 5
0 7 5 3 11 -4 8 -9 7 -14 -2 -16 -25 -40 -18 -49 14 l-9 32 -2 -30 c-1 -16 -4
-25 -6 -19 -2 6 -20 9 -38 8 -19 -2 -39 3 -45 10 -13 16 -64 9 -58 -8 2 -6 26
-14 53 -17 71 -10 169 -36 250 -68 39 -16 89 -32 111 -36 37 -6 42 -10 48 -42
7 -41 3 -49 -22 -34 -14 8 -14 10 -3 11 13 0 13 1 0 10 -14 9 -97 6 -107 -3
-11 -11 50 -17 64 -6 11 10 13 10 11 0 -2 -7 13 -18 32 -24 27 -9 36 -18 38
-40 2 -15 8 -25 13 -22 5 4 9 1 9 -5 0 -8 -7 -9 -17 -5 -10 4 -25 8 -33 9 -9
1 -21 6 -29 10 -8 5 -17 3 -22 -5 -7 -11 -9 -10 -9 4 0 9 -7 17 -16 17 -8 0
-12 -4 -9 -10 3 -5 2 -10 -3 -10 -6 0 -12 7 -16 15 -3 8 -10 15 -16 15 -6 0
-8 -5 -5 -10 9 -14 -8 -13 -23 2 -9 9 -12 9 -12 0 0 -6 -6 -9 -13 -7 -25 9
-203 12 -222 3 -17 -7 -16 -8 5 -4 27 5 269 -17 310 -28 23 -6 79 -14 108 -15
6 -1 12 -9 12 -18 0 -16 2 -16 10 -3 7 11 9 2 5 -30 -4 -33 -3 -40 4 -25 9 19
10 19 10 1 1 -11 4 -17 7 -14 10 10 -29 168 -39 161 -6 -4 -8 1 -4 11 9 23 -3
127 -14 120 -5 -3 -9 0 -9 5 0 6 5 11 11 11 11 0 2 43 -11 48 -4 2 -6 11 -3
21 3 10 0 35 -6 56 -8 31 -7 36 5 31 8 -3 14 -1 14 4 0 6 -7 10 -15 10 -8 0
-14 3 -14 8 1 4 1 9 -1 12 -1 3 -4 22 -6 43 -4 30 -2 37 8 31 10 -6 10 -5 2 7
-7 8 -11 41 -9 78 2 53 6 67 26 84 l24 19 -25 -14 -25 -15 0 47 c0 27 4 46 9
43 5 -3 7 6 4 21 -3 14 -1 26 4 26 6 0 8 7 4 15 -3 8 -1 15 5 15 6 0 8 7 5 17
-6 14 -3 14 16 -3 17 -14 19 -15 9 -2 -11 15 -10 23 10 54 13 21 17 34 11 30
-17 -11 -15 5 7 37 19 29 61 64 61 50 -1 -11 -26 -43 -31 -39 -2 3 -5 -5 -6
-17 0 -12 -9 -47 -17 -77 -9 -30 -15 -65 -13 -77 2 -13 1 -23 -2 -23 -3 0 -7
-19 -7 -42 -1 -24 -5 -131 -8 -238 -6 -140 -5 -191 3 -180 8 11 9 -1 5 -45 -6
-61 5 -156 32 -277 23 -100 33 -83 12 20 -17 87 -39 348 -37 452 l1 55 9 -40
c5 -22 12 -47 16 -55 3 -8 5 -19 4 -25 -2 -5 0 -7 4 -3 4 3 27 -9 52 -28 25
-19 52 -33 60 -30 8 3 12 2 9 -3 -9 -15 46 -29 74 -20 24 9 24 8 6 -6 -11 -8
-29 -15 -40 -15 -19 -1 -19 -1 -3 -11 13 -8 24 -4 48 19 22 21 40 29 60 27 16
-1 29 2 29 9 0 7 4 6 9 -2 6 -10 10 -9 14 7 3 12 10 21 15 21 23 0 -33 -199
-101 -357 -33 -79 -35 -114 -2 -55 l15 27 -5 -30 c-5 -28 -5 -28 5 -6 6 13 8
33 4 44 -4 14 -3 17 6 12 8 -5 11 -4 7 1 -3 6 10 55 28 109 l34 100 -4 -124
c-3 -69 -7 -133 -11 -143 -3 -10 -1 -18 4 -18 6 0 13 46 17 103 4 56 13 170
21 252 8 83 19 228 24 324 6 96 13 186 16 200 8 43 23 261 24 349 0 80 1 82
24 82 17 0 26 -7 30 -26 8 -32 -4 -256 -15 -269 -4 -6 -6 -25 -3 -43 3 -17 -2
-107 -10 -199 -8 -93 -18 -231 -21 -308 -3 -77 -13 -211 -21 -299 -13 -144
-13 -179 1 -164 3 2 11 92 20 199 8 107 19 212 24 234 13 51 13 64 1 45 -5 -8
-10 -10 -10 -4 0 19 13 24 28 11 11 -8 14 -8 9 0 -4 6 -2 24 4 40 13 31 12
219 -1 242 -4 8 -5 -30 -3 -85 4 -78 2 -108 -11 -138 -9 -22 -19 -37 -22 -34
-3 4 0 66 7 139 6 74 11 150 10 169 -2 48 15 28 40 -46 12 -37 18 -46 14 -24
-3 19 -15 54 -26 77 -16 34 -19 55 -15 110 2 37 5 94 5 126 1 32 4 56 9 53 4
-2 6 13 4 35 -2 21 -1 39 2 39 9 0 90 -127 122 -192 15 -31 32 -54 37 -51 5 3
6 -4 2 -17 -5 -17 -4 -21 6 -15 9 6 11 3 6 -9 -4 -10 -4 -28 -1 -41 5 -21 8
-22 20 -10 11 10 12 20 4 41 -8 19 -7 31 2 43 12 14 11 14 -4 2 -26 -20 -22 0
5 24 13 11 17 16 10 12 -15 -11 -43 14 -44 40 0 16 -1 16 -9 -2 -11 -27 -12
-37 -1 -31 5 3 15 -2 22 -12 13 -15 12 -16 -3 -3 -15 11 -18 11 -18 0 -1 -9
-4 -8 -11 4 -6 10 -8 24 -6 31 3 8 -1 26 -9 41 -10 20 -11 32 -3 47 6 11 8 22
5 26 -3 3 -6 0 -6 -7 0 -7 -4 -9 -10 -6 -6 4 -7 -1 -4 -12 4 -12 0 -10 -14 7
-12 14 -20 26 -18 27 1 1 16 3 33 5 19 1 30 7 29 15 -1 8 -5 13 -9 13 -43 -1
-43 -1 -22 -10 18 -8 17 -9 -8 -9 -17 -1 -35 8 -49 24 -11 13 -26 21 -31 18
-6 -4 -8 0 -4 10 4 10 2 16 -4 14 -6 -1 -13 8 -15 21 -2 13 0 21 4 18 5 -3 18
1 28 10 18 14 18 15 -3 4 -21 -10 -23 -8 -23 14 0 14 5 28 11 31 15 10 26 44
34 106 8 61 12 72 26 63 5 -3 16 0 24 6 13 10 26 2 75 -50 61 -64 67 -74 50
-85 -5 -3 -10 -2 -10 3 0 5 -10 12 -22 15 l-23 6 23 -19 c12 -10 22 -24 23
-32 0 -7 4 -3 10 10 5 13 14 20 20 17 6 -4 8 -13 5 -21 -3 -8 0 -13 7 -11 7 1
11 -6 11 -15 -1 -10 3 -15 9 -11 6 4 8 0 4 -11 -4 -10 -3 -15 3 -11 18 11 11
-11 -9 -29 -11 -10 -24 -15 -30 -12 -5 4 -12 2 -16 -4 -11 -19 28 -10 51 11
l22 20 26 -46 c14 -26 23 -52 19 -58 -4 -6 -1 -7 7 -2 10 6 12 4 7 -9 -5 -11
-3 -15 5 -10 8 5 9 2 5 -10 -4 -9 -3 -15 2 -12 14 9 23 -26 10 -38 -9 -8 -10
-7 -6 6 4 10 1 15 -8 14 -23 -3 -29 -15 -11 -22 15 -6 15 -7 1 -18 -14 -10
-13 -12 7 -11 13 1 30 5 38 10 10 6 12 4 7 -9 -4 -10 -3 -15 3 -11 16 10 12
-12 -5 -29 -8 -8 -15 -18 -15 -23 1 -4 10 3 22 17 l21 25 -6 -25 c-4 -14 -1
-42 5 -64 10 -32 13 -35 20 -20 5 12 6 4 3 -21 -3 -31 -2 -35 5 -20 8 15 9 12
4 -15 -6 -35 -6 -35 11 -12 9 12 22 19 28 16 7 -4 2 4 -9 17 -28 31 -40 69
-22 69 9 1 7 5 -4 14 -10 7 -18 16 -18 19 0 3 -5 18 -12 34 -6 15 -12 30 -13
33 -6 19 -32 67 -42 78 -16 17 -8 33 12 26 8 -4 12 -11 8 -17 -4 -6 -1 -7 7
-2 10 6 9 11 -4 21 -10 7 -24 10 -32 7 -9 -3 -12 2 -9 16 2 12 0 21 -5 21 -17
0 -33 41 -21 53 8 8 11 7 11 -3 0 -11 3 -11 12 -2 28 28 112 6 102 -26 -4 -13
-3 -14 4 -4 7 11 12 10 26 -4 9 -9 15 -23 12 -30 -8 -21 17 -12 31 11 15 25
17 1 2 -28 -11 -21 -11 -21 7 -5 17 17 17 20 -1 75 -11 32 -19 64 -18 70 0 7
-4 10 -9 7 -5 -3 -7 -12 -4 -20 3 -8 3 -21 0 -29 -5 -13 -8 -13 -27 0 -12 8
-26 15 -32 15 -5 0 4 -9 22 -20 31 -19 59 -57 50 -67 -3 -2 -10 4 -16 15 -20
37 -78 65 -122 59 -21 -3 -42 -1 -45 4 -5 9 22 13 69 10 15 -1 27 2 27 7 0 6
-10 8 -22 5 -19 -5 -21 -3 -10 8 6 7 12 22 12 32 0 18 -2 17 -18 -4 -13 -15
-25 -20 -36 -16 -10 4 -15 10 -12 15 2 4 1 14 -5 22 -7 12 -9 11 -9 -6 0 -12
7 -27 16 -35 14 -12 13 -14 -6 -21 -14 -5 -28 -4 -36 3 -16 13 -8 32 9 23 7
-4 8 -3 4 2 -5 5 -14 9 -20 9 -16 0 -21 53 -6 71 13 16 79 19 79 4 0 -5 9 -10
19 -10 11 0 23 -5 26 -10 4 -6 11 -7 17 -4 8 5 9 1 5 -10 -4 -9 -3 -15 2 -11
5 3 19 -15 31 -40 12 -25 23 -45 24 -45 2 0 2 17 1 38 -1 24 -6 36 -15 34 -8
-2 -10 3 -6 13 3 9 2 14 -2 11 -4 -3 -14 5 -22 17 -12 20 -12 21 3 8 11 -9 17
-10 17 -2 0 11 -12 15 -44 11 -12 -1 -16 2 -11 11 6 8 4 10 -4 4 -15 -9 -101
22 -101 36 0 6 -4 7 -10 4 -16 -10 -12 -25 8 -26 13 0 14 -2 2 -6 -8 -2 -25
-9 -37 -15 -22 -11 -74 -4 -72 10 1 4 -2 18 -7 31 -7 23 -8 23 -14 6 -7 -19
-7 -18 -19 3 -10 19 -9 22 8 22 11 0 26 7 34 15 12 12 17 12 26 1 6 -7 8 -16
4 -19 -3 -4 1 -7 10 -7 11 0 15 -6 11 -17 -5 -15 -4 -16 6 -3 9 13 11 12 8 -5
-2 -10 -14 -22 -28 -26 -23 -6 -23 -7 -3 -8 12 -1 29 9 37 21 17 24 21 42 8
34 -12 -7 -64 49 -55 59 5 4 0 5 -10 2 -10 -4 -21 -7 -23 -7 -3 0 -3 -4 1 -9
7 -12 -31 -25 -45 -16 -15 9 -9 67 7 61 7 -3 13 -1 13 4 0 19 18 10 23 -11 4
-13 10 -18 17 -14 9 6 9 9 0 15 -8 5 -10 15 -6 26 6 16 10 15 31 -11 12 -17
21 -33 18 -37 -4 -7 12 -12 30 -9 4 0 7 -4 7 -10 0 -5 5 -7 10 -4 6 3 10 1 10
-5 0 -6 6 -10 13 -8 20 5 97 -34 90 -45 -4 -6 0 -8 10 -4 10 3 17 2 17 -4 0
-6 4 -8 9 -5 19 12 51 -33 85 -121 20 -51 36 -99 36 -107 0 -8 4 -17 10 -21 6
-3 5 -15 -2 -30 -12 -28 -31 -35 -21 -8 4 11 3 14 -6 9 -8 -5 -10 -19 -6 -38
6 -23 4 -29 -5 -23 -9 5 -11 4 -6 -4 4 -6 12 -9 18 -5 5 3 8 -2 7 -12 -2 -11
0 -25 4 -31 4 -7 3 -23 -3 -35 -11 -22 -10 -22 4 -4 16 20 16 20 16 0 0 -16 2
-17 11 -4 8 12 10 11 7 -5 -2 -11 -10 -20 -17 -20 -8 0 -15 -8 -17 -18 -2 -14
1 -15 10 -8 7 6 16 8 19 4 4 -3 7 0 7 7 0 7 3 11 6 8 3 -4 0 -16 -6 -28 -13
-25 -4 -42 10 -20 6 9 10 10 10 3 0 -17 -49 -68 -57 -59 -4 3 -1 12 5 18 20
20 14 29 -15 22 -35 -8 -37 -10 -28 -24 5 -8 10 -8 20 0 11 9 12 7 8 -8 -7
-28 14 -36 34 -13 9 11 20 18 25 15 4 -3 8 0 8 7 0 7 2 10 5 7 4 -3 3 -18 -1
-32 -5 -21 -10 -25 -27 -20 -17 5 -15 1 8 -19 27 -23 29 -27 16 -50 -14 -26
-29 -30 -44 -12 -4 6 -7 1 -5 -10 2 -16 -2 -20 -27 -19 -18 0 -29 6 -27 13 1
7 -2 9 -9 5 -9 -5 -10 -2 -6 9 3 9 1 18 -6 20 -8 3 -5 12 9 27 15 15 27 20 35
14 8 -5 20 -9 28 -11 8 -1 18 -8 22 -15 6 -9 9 -9 9 -1 0 14 -39 43 -59 43 -8
0 -23 -8 -34 -18 -19 -16 -20 -16 -14 1 4 11 3 16 -3 12 -6 -3 -10 -1 -10 4 0
6 12 11 26 11 14 0 23 4 20 9 -11 17 -54 -1 -59 -25 -2 -13 0 -21 4 -18 19 12
8 -37 -13 -57 -13 -12 -17 -19 -10 -15 7 4 12 2 13 -6 0 -7 5 1 11 17 10 28
14 18 45 -120 18 -82 36 -159 39 -170 6 -19 5 -19 -11 -4 -15 15 -20 15 -46 2
-17 -8 -36 -12 -44 -9 -7 2 -16 0 -18 -7 -8 -22 -15 -3 -32 83 -8 47 -27 135
-41 197 -19 85 -23 117 -15 132 16 30 12 40 -4 11 -8 -14 -14 -19 -15 -12 0 8
-25 76 -56 153 -30 76 -52 144 -48 150 5 8 3 9 -6 4 -10 -6 -12 -4 -7 9 5 11
3 15 -5 10 -8 -5 -9 -2 -5 10 5 11 3 15 -5 10 -8 -5 -9 -2 -5 10 5 11 3 15 -5
10 -8 -5 -9 -2 -5 10 4 10 3 15 -3 11 -12 -7 -33 32 -24 47 5 7 3 8 -6 3 -10
-6 -12 -4 -7 8 3 9 3 16 -2 14 -4 -1 -27 22 -50 51 -63 80 -60 56 4 -33 31
-43 53 -85 51 -92 -3 -8 -2 -12 3 -8 9 5 60 -92 76 -145 4 -14 24 -68 45 -120
43 -108 84 -266 74 -282 -5 -7 -2 -8 6 -3 10 6 12 3 8 -13 -4 -12 -3 -24 1
-27 13 -7 33 -114 26 -137 -4 -16 -4 -19 3 -9 7 9 12 -5 17 -50 4 -35 9 -71
11 -79 22 -92 33 -152 28 -165 -4 -8 -1 -15 6 -15 8 0 11 -11 8 -30 -3 -17 -1
-30 3 -30 3 0 10 -26 14 -58 8 -55 8 -56 17 -25 4 18 13 35 18 38 5 3 6 13 3
21 -5 13 -9 10 -19 -12 l-12 -29 -1 27 c-1 15 3 30 9 33 5 3 10 15 10 26 0 11
5 17 10 14 6 -3 10 -2 10 4 0 25 -19 18 -31 -12 -11 -28 -13 -30 -16 -10 -2
12 3 33 13 47 9 14 12 26 6 26 -5 0 -13 -8 -17 -18 -5 -11 -14 15 -26 77 -10
52 -16 97 -14 102 3 4 -1 10 -7 12 -8 4 -7 6 4 6 9 1 19 5 22 10 4 5 -3 7 -14
4 -36 -10 -21 13 17 25 24 8 41 8 47 2 16 -16 30 -11 16 5 -8 9 -9 15 -2 15 6
0 14 -4 17 -10 3 -5 12 -10 20 -10 10 0 13 13 12 44 -1 24 -5 42 -8 41 -3 -2
-6 1 -7 8 -2 31 -9 64 -14 72 -11 20 -20 78 -11 72 5 -4 10 0 10 8 0 8 -6 16
-14 19 -7 3 -13 10 -13 15 0 13 34 8 43 -7 5 -7 13 -10 18 -7 5 4 7 11 4 16
-4 5 -2 9 4 9 18 0 59 45 66 72 4 14 -3 65 -15 114 -33 141 -40 165 -49 160
-10 -6 -7 71 3 81 3 3 6 1 6 -5 0 -6 5 -23 12 -39 6 -15 12 -35 14 -43 2 -8 9
-35 17 -60 12 -42 14 -43 19 -18 3 17 1 25 -5 21 -6 -4 -8 2 -5 15 4 12 3 22
-1 22 -4 0 -13 24 -21 53 -7 28 -15 57 -17 63 -2 6 5 14 16 17 12 3 21 10 21
16 0 14 -17 14 -25 1 -3 -5 -10 -10 -14 -10 -8 0 -46 116 -44 138 0 6 -3 12
-7 12 -21 0 -17 67 6 112 13 26 24 59 24 73 0 15 4 24 10 20 17 -11 11 -79
-10 -105 -21 -27 -26 -65 -10 -75 6 -4 8 -10 5 -15 -3 -5 -1 -11 5 -15 5 -3
10 -11 10 -16 0 -6 -6 -7 -12 -3 -10 6 -10 5 -1 -8 7 -8 9 -19 5 -23 -4 -5 -1
-5 7 0 11 6 13 3 9 -13 -4 -14 -2 -20 4 -16 7 5 9 -2 6 -19 -3 -17 -1 -24 8
-20 15 5 26 43 12 40 -6 -1 -12 5 -13 13 -2 8 -6 23 -10 33 -9 20 -1 22 17 4
8 -9 21 -11 33 -6 18 7 18 8 -4 8 -24 1 -24 1 -5 17 18 14 18 15 -4 4 -26 -13
-35 -9 -38 18 -2 9 -8 18 -13 20 -15 5 -13 42 4 72 8 14 14 44 15 68 0 23 5
42 11 42 5 0 8 -4 5 -8 -6 -10 80 -102 95 -102 6 0 8 -9 4 -20 -3 -11 -2 -20
4 -20 5 0 12 8 14 18 3 9 3 -7 1 -35 -1 -29 1 -55 7 -58 5 -4 9 -13 9 -22 0
-14 -2 -14 -20 2 -11 10 -17 23 -13 29 4 6 -3 2 -15 -8 -26 -23 -28 -29 -5
-24 21 4 62 -32 66 -58 1 -10 6 -25 10 -31 4 -7 3 -22 -3 -33 -7 -14 -7 -20 0
-20 6 0 15 12 20 26 13 33 13 54 0 34 -8 -13 -10 -13 -10 2 0 10 11 25 24 33
36 24 40 43 8 37 -24 -5 -25 -6 -7 -13 17 -6 10 -11 -11 -8 -4 0 -11 -5 -16
-13 -7 -9 -8 -3 -4 17 5 22 4 26 -4 15 -8 -12 -10 -11 -10 9 0 18 4 22 20 18
11 -3 23 0 27 6 3 7 3 9 -2 5 -4 -4 -16 -3 -26 2 -12 7 -19 6 -23 -3 -3 -6 -3
4 0 23 4 26 3 31 -5 20 -9 -13 -11 -13 -11 2 0 25 17 31 32 11 7 -10 24 -19
38 -20 24 -2 24 -2 -3 8 -15 6 -25 15 -21 20 3 5 9 7 14 4 16 -10 3 28 -14 40
-15 11 -14 13 9 18 31 5 61 -31 52 -64 -3 -11 4 -70 16 -130 19 -96 20 -111 7
-120 -12 -9 -10 -10 7 -6 21 5 22 2 18 -30 -6 -48 -11 -50 -40 -23 -30 28 -33
22 -4 -11 19 -22 19 -24 2 -30 -13 -6 -14 -8 -3 -8 22 -1 42 -39 34 -63 -4
-14 -2 -18 5 -14 15 10 14 33 -5 60 -11 18 -12 26 -3 31 17 11 29 -15 29 -67
0 -37 -4 -48 -16 -48 -8 0 -12 -5 -9 -10 4 -6 10 -8 15 -5 12 8 21 -32 16 -70
-3 -16 -5 -34 -5 -38 -1 -5 -6 -5 -13 -1 -6 4 -8 3 -4 -4 3 -6 -2 -13 -11 -16
-11 -3 -8 -4 7 -3 14 1 29 7 33 12 5 6 5 -12 2 -40 -4 -27 -11 -51 -16 -53 -5
-2 -9 -8 -9 -13 0 -6 9 -5 21 1 20 11 20 10 14 -37 -4 -26 -15 -56 -23 -66
-15 -16 -14 -17 1 -11 10 3 17 1 17 -6 0 -6 5 -8 10 -5 6 4 10 -10 10 -34 0
-30 -4 -41 -15 -41 -8 0 -15 4 -15 9 0 5 -6 9 -12 8 -41 -1 -47 4 -53 47 -4
24 -3 76 2 115 5 39 6 71 1 71 -4 0 -8 -13 -8 -30 0 -32 -23 -42 -34 -15 -7
18 -37 20 -54 3 -7 -7 -12 -25 -12 -41 0 -18 -4 -26 -11 -21 -6 3 -9 22 -7 40
2 19 1 34 -3 34 -4 0 -9 -16 -11 -35 -2 -19 0 -35 4 -35 5 0 7 -20 6 -45 0
-25 2 -48 5 -52 4 -3 7 8 7 26 0 18 5 42 12 54 7 12 12 33 12 47 1 33 41 41
51 11 3 -12 10 -21 15 -21 5 0 8 -31 7 -70 -1 -65 -3 -70 -24 -70 -12 0 -24
-4 -27 -8 -2 -4 11 -6 30 -4 21 3 34 0 34 -7 0 -6 -5 -11 -11 -11 -8 0 -8 -5
1 -15 11 -14 7 -19 -12 -16 -5 0 -8 -3 -8 -9 0 -5 7 -10 15 -10 8 0 15 -6 16
-12 13 -161 18 -351 10 -367 -9 -16 2 -51 13 -41 2 3 6 82 8 177 2 94 -1 166
-5 160 -4 -7 -7 13 -5 45 2 31 0 54 -4 51 -5 -2 -8 7 -8 21 0 18 5 26 18 25
10 0 12 -3 4 -6 -6 -2 -12 -10 -12 -16 0 -8 4 -7 12 1 17 17 31 15 24 -3 -3
-8 -2 -14 2 -14 29 5 34 -3 29 -36 -3 -19 -2 -35 4 -35 5 0 9 14 9 31 0 17 4
28 10 24 5 -3 7 -19 3 -35 -3 -19 -1 -30 6 -30 6 0 11 -5 11 -11 0 -6 -7 -8
-16 -5 -14 5 -15 -5 -9 -101 4 -60 9 -110 11 -112 2 -2 5 22 5 55 1 32 3 51 6
41 6 -25 23 -21 23 6 0 48 -21 203 -29 222 -5 11 -19 133 -30 270 -12 138 -24
277 -26 310 -11 125 -27 217 -36 203 -6 -8 -7 4 -4 32 4 33 3 40 -4 25 -11
-22 -15 -6 -5 19 5 12 13 6 37 -26 17 -24 30 -46 29 -50 -1 -5 3 -8 9 -8 7 0
9 -10 5 -27 -5 -22 -4 -25 4 -13 9 11 10 4 6 -30 -4 -33 -3 -40 4 -25 7 15 8
4 5 -40 -3 -41 -2 -51 4 -30 4 17 6 -39 3 -125 -3 -114 0 -184 12 -265 15 -96
30 -261 52 -565 8 -101 14 -119 35 -94 8 10 9 15 3 11 -7 -4 -14 2 -17 13 -3
11 -1 18 3 15 5 -3 11 -1 15 5 3 5 -1 10 -9 10 -18 0 -22 25 -6 35 8 5 7 11 0
20 -10 11 -8 13 9 10 12 -2 19 0 16 6 -4 5 7 14 24 20 17 6 31 15 31 19 0 4
10 6 23 3 17 -5 19 -3 11 7 -15 15 -46 6 -84 -27 -31 -25 -40 -22 -17 7 6 9 2
5 -11 -8 l-22 -23 0 84 c0 145 37 220 153 313 25 21 32 31 21 31 -10 0 -45
-28 -79 -61 -50 -50 -65 -73 -83 -126 l-21 -65 -2 65 c0 36 -1 94 -2 129 0 43
-3 58 -9 45 -9 -21 -4 52 7 96 5 21 4 20 -9 -5 l-15 -30 6 45 c4 25 12 65 19
90 11 41 12 42 14 15 2 -28 3 -27 11 10 6 22 8 48 5 58 -2 9 -1 17 3 17 5 0 8
26 8 58 0 31 -1 46 -4 32 -5 -35 -66 -260 -69 -257 -1 1 -5 28 -7 60 -4 48 1
75 29 160 21 62 47 118 67 144 l34 42 30 -77 c17 -42 41 -105 53 -139 21 -59
39 -89 24 -40 -14 48 8 5 70 -135 36 -81 73 -173 81 -205 9 -32 19 -65 22 -73
6 -16 11 -33 16 -52 1 -7 5 -17 9 -23 6 -10 32 -141 42 -207 2 -21 0 -40 -5
-43 -5 -4 -9 -11 -9 -16 0 -6 4 -8 9 -4 6 3 12 -12 14 -32 3 -21 3 8 1 64 l-3
101 67 17 c74 18 118 26 145 26 9 0 17 5 17 11 0 7 -13 8 -36 5 -32 -5 -34 -4
-22 11 12 16 11 16 -7 1 -33 -26 -55 -31 -55 -11 0 9 -10 23 -22 31 -21 13
-22 13 -8 -3 23 -28 22 -52 -2 -53 -12 -1 -34 -7 -50 -14 -16 -6 -30 -10 -31
-8 -5 8 -47 192 -45 195 2 1 30 9 63 17 33 9 90 26 127 40 36 13 90 27 120 30
29 3 84 9 121 13 37 4 70 11 73 15 3 5 -4 9 -15 9 -24 0 -36 16 -24 33 4 7 1
6 -7 -3 -9 -8 -26 -24 -40 -35 -20 -18 -23 -18 -17 -2 6 15 4 16 -16 4 -29
-17 -62 -16 -63 3 0 8 13 39 29 69 17 30 26 52 21 49 -5 -4 -25 -36 -44 -72
-24 -47 -40 -65 -51 -63 -8 2 -24 -2 -34 -9 -26 -20 -35 -17 -36 9 0 13 -2 16
-6 7 -2 -8 -7 -22 -10 -30 -3 -11 -8 -9 -19 10 -14 23 -14 23 -9 3 9 -32 1
-29 -25 10 -12 17 -19 24 -16 15 2 -9 0 -19 -7 -21 -7 -2 -4 -3 6 -2 20 4 22
-8 3 -24 -10 -9 -16 -8 -26 4 -7 8 -20 15 -29 15 -11 0 -8 -4 8 -13 41 -20 34
-33 -24 -52 -31 -9 -57 -16 -59 -14 -5 8 -56 152 -54 154 5 2 95 27 198 56 58
15 139 40 180 54 41 14 83 24 93 21 9 -2 15 0 11 5 -3 5 -13 9 -22 10 -10 0
-5 6 13 14 17 8 24 14 16 15 -10 0 -10 6 4 27 10 16 25 34 34 42 13 11 13 12
1 9 -8 -3 -24 -18 -35 -34 -54 -80 -64 -88 -90 -76 -21 10 -27 9 -31 -2 -3 -8
-12 -17 -20 -20 -11 -4 -13 0 -8 18 3 14 1 27 -6 31 -9 5 -10 1 -5 -15 5 -17
4 -21 -6 -15 -9 6 -11 3 -6 -11 7 -18 7 -18 -8 0 -8 11 -15 25 -15 30 0 6 -13
20 -28 31 l-26 19 22 -31 c34 -48 26 -51 -20 -8 -24 22 -33 28 -20 14 12 -14
19 -29 15 -34 -5 -4 -3 -5 4 -1 6 3 18 -3 26 -15 11 -15 16 -17 20 -7 3 7 4 3
4 -9 -1 -23 -7 -24 -54 -6 -7 3 -13 0 -13 -6 0 -6 6 -11 13 -12 15 -1 -22 -17
-42 -18 -9 -1 -11 6 -8 19 3 13 -1 24 -13 30 -15 8 -17 6 -13 -10 4 -16 2 -19
-11 -14 -19 7 -19 9 -6 35 6 10 8 19 6 19 -3 0 -10 -10 -17 -21 -10 -19 -7
-25 17 -45 16 -13 25 -24 19 -24 -5 -1 -19 -4 -30 -6 -63 -14 -104 -12 -109 4
-2 9 -4 6 -3 -8 2 -19 -3 -26 -21 -28 -20 -3 -27 7 -58 75 -20 43 -69 148
-110 234 -41 86 -74 163 -74 172 0 9 13 32 30 50 17 19 30 37 30 40 0 4 -136
114 -214 172 -22 16 -62 42 -90 58 l-51 29 235 -6 c129 -3 261 -6 294 -6 54 0
57 -1 45 -17 -13 -16 -12 -17 3 -5 10 8 20 22 23 33 5 14 16 19 41 19 40 0 41
-3 14 -30 -11 -11 -22 -20 -25 -20 -3 0 -10 0 -16 0 -5 0 -8 -4 -5 -9 4 -5 1
-11 -6 -13 -7 -3 -13 -15 -13 -29 0 -17 -6 -24 -20 -26 -11 0 -60 -4 -110 -7
-81 -4 -85 -4 -37 5 50 10 112 49 78 49 -8 0 -16 -7 -20 -15 -3 -9 -17 -14
-38 -13 -19 1 -43 -4 -54 -10 -11 -6 -44 -14 -73 -18 -65 -8 -58 -17 14 -17
30 0 55 -3 55 -7 0 -3 42 -1 93 6 50 7 106 10 122 7 17 -4 46 -7 65 -8 19 -1
40 -3 45 -4 19 -4 -80 -40 -115 -42 -27 -2 -29 -3 -10 -6 14 -2 55 3 92 10 63
14 68 13 84 -4 13 -14 14 -19 4 -19 -7 0 -11 -2 -9 -5 3 -2 27 2 54 11 46 13
51 13 62 -3 15 -20 13 -22 -17 -28 -13 -3 -28 -9 -34 -15 -5 -5 -19 -11 -30
-11 -14 -1 -16 -3 -6 -5 8 -3 41 4 72 15 31 11 59 17 61 14 3 -3 39 -6 80 -6
67 -2 74 0 66 14 -5 9 -16 20 -25 23 -14 5 -15 4 -5 -8 10 -12 8 -13 -11 -9
-13 3 -29 11 -37 17 -11 8 -13 8 -7 -1 5 -9 -1 -13 -18 -13 -36 0 -33 19 4 27
17 3 30 9 30 13 0 4 10 10 22 13 12 4 19 9 15 13 -4 4 -26 -3 -48 -15 -38 -22
-42 -22 -57 -7 -15 15 -15 19 -2 29 18 15 38 45 46 69 4 9 27 24 53 33 43 14
80 49 66 63 -3 4 -10 0 -15 -8 -8 -13 -10 -12 -10 3 0 10 -4 15 -10 12 -5 -3
-10 -1 -10 5 0 6 -4 9 -9 5 -6 -3 -14 3 -20 12 -6 11 -11 13 -11 5 0 -7 11
-23 25 -36 25 -23 34 -43 15 -31 -5 3 -10 1 -10 -6 0 -8 -4 -8 -15 1 -14 12
-20 7 -16 -14 1 -5 -5 -6 -13 -3 -8 3 -17 1 -20 -6 -2 -7 -5 -3 -5 7 -1 18 -2
18 -20 -2 -10 -12 -21 -19 -24 -16 -3 3 -3 -3 0 -15 3 -12 10 -21 17 -21 6 0
0 -11 -14 -23 -14 -12 -24 -30 -22 -39 4 -23 -25 -13 -32 10 -3 10 -4 5 -2
-10 4 -32 -1 -34 -28 -13 -17 13 -21 13 -33 -5 -9 -12 -20 -17 -31 -13 -25 10
-42 36 -31 49 5 6 6 14 2 17 -3 4 -12 -1 -19 -11 -12 -16 -12 -16 -9 3 2 11 4
23 4 27 1 9 72 42 84 39 4 0 10 12 13 29 4 16 10 27 15 25 4 -3 20 -3 34 1 18
4 23 9 15 14 -26 16 -83 -12 -73 -36 7 -18 -14 -18 -33 1 -13 13 -13 18 3 40
10 13 26 27 36 31 10 3 16 11 14 17 -6 17 11 47 28 47 7 0 16 4 19 9 4 5 -4 7
-16 3 -14 -3 -19 -2 -14 6 4 7 15 12 24 13 9 0 12 3 5 5 -6 3 -35 -11 -63 -30
-29 -20 -56 -33 -61 -30 -5 3 -14 0 -21 -6 -7 -6 -22 -17 -33 -25 -16 -12 -16
-14 -2 -9 13 5 16 2 11 -10 -3 -9 -2 -16 4 -16 15 0 23 28 9 33 -7 2 6 8 28
12 22 4 46 12 53 18 24 19 12 -15 -18 -50 -30 -33 -39 -63 -20 -63 6 0 10 -5
10 -10 0 -6 -3 -9 -7 -9 -21 3 -33 -2 -33 -16 0 -8 -4 -15 -9 -15 -16 0 -33
30 -27 47 6 14 5 15 -5 6 -10 -10 -10 -17 0 -36 21 -40 11 -62 -32 -65 -31 -3
-39 1 -48 22 -9 20 -9 29 1 41 7 8 15 14 19 12 3 -1 21 12 39 30 19 18 29 33
22 33 -6 0 -9 3 -7 8 3 4 -17 7 -43 7 -27 0 -48 -4 -47 -10 3 -13 -46 -14 -55
0 -5 6 -8 6 -8 -3 0 -10 -58 -12 -277 -12 -268 2 -278 2 -322 25 -25 12 -75
33 -111 45 -36 13 -66 25 -68 26 -2 1 8 19 22 41 33 50 50 130 38 177 -7 24
-7 55 0 93 20 112 26 309 9 326 -6 6 -11 7 -11 1 0 -6 -7 -19 -15 -30 -8 -10
-14 -14 -14 -9 3 16 -20 65 -30 65 -5 0 -11 -9 -14 -20 -4 -15 -14 -20 -36
-20 -27 0 -32 4 -37 30 -8 36 -20 39 -28 7 -5 -20 -11 -22 -40 -19 -23 3 -36
10 -39 23 -7 27 -26 24 -37 -6 -8 -21 -16 -25 -51 -25 -28 0 -46 6 -55 17 -11
16 -13 15 -19 -10 -4 -16 -17 -32 -29 -37 -19 -8 -18 -9 8 -9 23 -1 27 -4 21
-18 -4 -10 -10 -26 -12 -35 -3 -10 -9 -18 -14 -18 -5 0 -6 -7 -3 -15 4 -8 1
-15 -5 -15 -6 0 -11 4 -11 9 0 5 -3 17 -6 25 -5 12 -2 15 11 10 15 -6 16 -4 6
14 -7 12 -9 22 -5 22 3 0 2 6 -4 13 -5 6 -8 24 -6 40 3 30 -12 37 -20 10 -13
-45 -4 -222 15 -280 6 -20 7 -39 1 -48 -12 -23 6 -148 24 -161 22 -18 18 -77
-8 -101 -23 -20 -138 -68 -138 -57 0 3 -7 -2 -16 -10 -23 -24 -40 -19 -19 4
10 12 25 18 32 16 17 -7 17 5 -1 29 -9 12 -20 16 -36 12 -22 -6 -22 -6 -16 81
12 161 26 446 24 517 l-2 70 -6 -80 -6 -80 -2 62 c-1 34 -5 68 -8 77 -9 25
-33 19 -40 -10z m38 -257 l3 -117 -24 0 c-21 0 -23 3 -16 33 3 17 12 97 18
177 13 152 14 144 19 -93z m393 189 c0 -10 11 -23 23 -30 21 -11 22 -14 8 -25
-9 -7 -13 -17 -10 -22 3 -5 2 -9 -3 -8 -4 1 -16 -1 -26 -6 -11 -5 -24 -2 -35
9 -17 14 -19 14 -33 -2 -7 -10 -15 -23 -16 -29 -3 -13 43 -25 93 -25 30 0 34
-3 33 -26 0 -18 -3 -22 -7 -12 -8 17 -32 25 -32 11 0 -5 6 -12 13 -15 6 -4 2
-4 -10 -2 -13 2 -23 0 -23 -5 0 -5 17 -9 38 -9 35 0 37 2 37 33 0 30 2 32 36
33 34 1 36 -1 35 -30 -1 -28 -4 -31 -31 -29 -26 2 -28 1 -11 -9 14 -8 24 -8
38 1 14 9 18 8 19 -1 0 -10 2 -10 6 0 4 10 8 10 20 1 12 -11 12 -9 2 15 -12
25 -14 26 -20 9 -7 -17 -8 -16 -8 3 -1 28 18 44 51 44 20 0 26 4 22 14 -3 9 4
20 18 27 34 19 57 20 31 2 -22 -15 -34 -41 -13 -28 6 3 10 3 11 -2 5 -43 5
-64 -2 -69 -5 -2 -5 -12 -2 -21 5 -13 2 -15 -13 -10 -18 7 -18 6 -1 -7 12 -9
14 -16 8 -21 -6 -3 -11 -1 -11 5 0 7 -7 9 -15 6 -11 -4 -15 0 -13 11 2 9 -4
18 -12 20 -13 4 -13 3 -1 -6 12 -8 10 -11 -11 -16 -15 -4 -33 -3 -40 1 -15 10
-48 13 -124 13 -53 0 -91 21 -78 43 5 7 2 8 -5 4 -7 -5 -10 -14 -7 -22 6 -17
5 -17 -28 -4 -14 5 -26 16 -26 25 0 8 -6 15 -14 15 -8 0 -23 3 -33 6 -15 5
-15 4 -3 -5 9 -6 10 -11 3 -11 -6 0 -19 -3 -29 -7 -12 -4 -15 -3 -10 5 4 7 2
12 -4 12 -6 0 -8 5 -5 10 3 6 17 10 31 10 16 0 24 6 25 18 1 9 2 26 3 37 0 11
7 19 14 17 9 -2 11 4 7 18 -7 23 -2 25 26 10 10 -6 19 -17 19 -25 0 -21 -18
-19 -22 3 -3 14 -5 13 -10 -6 -3 -12 -2 -20 3 -16 5 3 9 -2 9 -11 0 -8 -10
-20 -22 -25 -22 -8 -22 -9 4 -9 23 -1 29 5 39 39 7 22 16 40 21 40 4 0 7 3 6
8 -2 4 6 17 17 30 23 26 50 25 50 -2z m64 15 c8 -5 11 -16 8 -25 -5 -12 0 -16
19 -16 13 0 27 -7 31 -15 5 -14 8 -14 24 1 23 21 26 9 3 -13 -8 -9 -13 -21
-11 -28 3 -6 -7 -19 -23 -28 -26 -16 -29 -16 -51 2 -20 15 -26 16 -36 5 -10
-10 -8 -14 10 -17 12 -2 -1 -5 -30 -6 -65 -1 -82 5 -76 30 3 10 9 16 14 13 5
-3 7 -10 4 -15 -4 -5 -3 -9 2 -10 4 0 18 -2 31 -5 14 -2 21 0 17 6 -3 5 1 10
9 10 8 0 21 14 30 31 13 26 13 31 0 36 -7 3 -14 10 -14 15 0 6 7 4 17 -3 15
-13 15 -12 5 8 -7 12 -17 24 -24 26 -7 3 -4 6 7 6 11 0 26 -3 34 -8z m-129
-10 c0 -5 -7 -14 -15 -21 -12 -10 -18 -10 -30 0 -23 19 -18 30 15 30 17 0 30
-4 30 -9z m224 -15 c-3 -9 -12 -12 -21 -9 -12 5 -14 3 -8 -8 6 -11 5 -11 -5
-2 -16 14 -5 33 20 33 13 0 17 -5 14 -14z m56 -3 c0 -7 10 -12 22 -10 16 1 23
-4 25 -18 1 -11 0 -14 -3 -7 -8 17 -25 15 -18 -3 4 -8 2 -15 -4 -15 -5 0 -15
7 -22 15 -7 8 -18 15 -26 15 -15 0 -27 17 -20 28 8 13 46 9 46 -5z m-4 -48 c3
-8 -2 -24 -11 -37 -15 -20 -16 -20 -11 -3 7 18 5 18 -14 -2 -11 -13 -26 -23
-33 -22 -9 0 -9 2 1 6 6 2 12 14 12 24 0 13 4 18 12 13 7 -4 8 -3 4 4 -4 7 -4
17 -1 22 9 15 35 12 41 -5z m-292 -141 c12 2 32 -4 42 -12 17 -13 15 -14 -25
-8 -24 4 -51 14 -58 24 -13 15 -13 15 -4 -5 6 -12 16 -24 23 -27 7 -3 2 -4
-12 -3 -14 1 -24 7 -23 12 2 13 -27 45 -40 45 -6 0 0 -9 12 -19 15 -13 18 -21
10 -26 -8 -6 -8 -10 2 -17 10 -7 4 -8 -16 -4 -23 5 -27 4 -15 -4 12 -9 12 -11
1 -8 -21 6 -26 28 -7 28 9 0 16 4 16 10 0 5 -6 7 -14 4 -10 -4 -14 1 -13 15 1
15 11 24 32 29 25 7 33 4 48 -14 10 -14 26 -21 41 -20z m294 -45 c26 -9 31
-15 29 -39 -1 -18 -6 -25 -12 -19 -13 13 -85 12 -85 -2 0 -6 8 -8 19 -4 21 6
71 -10 71 -24 0 -11 -52 -12 -65 0 -6 4 -26 10 -45 12 -19 2 -46 10 -60 19
-41 26 -93 29 -126 7 -16 -10 -25 -19 -20 -19 5 0 3 -7 -4 -16 -12 -13 -7 -15
46 -15 32 0 68 0 79 0 11 0 32 3 48 7 23 5 27 3 27 -13 0 -11 11 -32 25 -47
14 -15 25 -30 25 -34 0 -4 -31 -7 -70 -7 -75 0 -87 10 -47 38 15 11 17 16 7
16 -17 1 -114 -88 -105 -97 3 -3 18 7 34 22 20 20 30 24 33 14 3 -9 29 -13 91
-14 48 0 87 2 87 5 0 3 -16 26 -35 50 -19 24 -35 45 -35 47 0 2 19 2 43 0 23
-2 49 -4 58 -5 22 -1 29 -55 12 -88 -7 -14 -11 -33 -8 -43 6 -17 -55 -127 -82
-147 -9 -7 -40 -13 -69 -13 -42 0 -59 5 -83 25 -31 27 -76 128 -67 152 3 7 -1
13 -10 13 -8 0 -21 15 -29 33 -14 32 -14 32 -15 5 0 -14 11 -39 24 -55 13 -16
29 -48 36 -72 6 -25 25 -56 46 -77 43 -41 33 -44 -27 -5 -92 59 -120 113 -122
238 0 56 -5 87 -14 95 -33 27 4 46 147 72 40 7 214 -3 248 -15z m-183 -58 c43
-9 42 -10 -21 -17 -29 -3 -45 0 -54 11 -11 13 -9 15 11 14 13 0 42 -4 64 -8z
m-211 -16 c3 -8 -1 -29 -9 -47 -11 -25 -14 -28 -15 -12 0 11 5 25 11 31 8 8 8
13 0 17 -6 4 -11 11 -11 17 0 14 17 11 24 -6z m-222 -132 c-5 -126 -21 -160
-24 -50 l-1 62 -7 -55 c-5 -33 -6 -10 -3 55 5 101 15 138 34 117 3 -4 4 -62 1
-129z m272 -125 c6 -4 7 -8 2 -8 -5 0 -1 -10 10 -21 23 -26 131 -79 161 -79
12 0 25 -4 28 -10 3 -5 11 -10 16 -10 6 0 7 5 4 10 -3 6 4 10 16 10 12 0 31 8
41 17 18 16 19 16 9 -7 -5 -14 -18 -42 -29 -63 -15 -28 -21 -33 -26 -21 -4 9
-1 24 6 33 11 14 11 14 -2 4 -12 -9 -36 -1 -120 39 -124 59 -150 80 -150 122
1 28 2 29 12 11 6 -11 16 -23 22 -27z m-265 -22 c7 -9 11 -23 7 -31 -5 -14 -8
-14 -30 0 -25 17 -140 30 -131 15 2 -4 30 -10 61 -12 49 -4 62 -10 86 -37 15
-17 28 -38 28 -46 0 -26 -18 -25 -37 3 -15 23 -25 27 -68 27 -27 1 -59 5 -70
9 -20 7 -20 7 -1 -8 11 -9 41 -19 68 -22 53 -7 98 -41 98 -74 0 -25 -5 -25
-30 0 -11 11 -32 22 -47 25 -16 3 -45 9 -66 14 -29 6 -35 6 -27 -4 6 -7 29
-16 52 -19 70 -11 131 -60 100 -80 -8 -4 -111 20 -120 29 -3 3 -11 0 -19 -6
-10 -9 -18 -8 -30 2 -10 7 -8 2 4 -11 17 -18 25 -21 36 -12 8 7 17 9 21 5 4
-4 -8 -13 -26 -20 l-33 -13 33 5 c37 5 37 6 18 -40 -15 -36 -50 -53 -82 -41
-14 5 -15 4 -4 -9 10 -12 10 -15 -4 -15 -10 0 -27 5 -39 11 -21 10 -21 10 -3
-5 11 -9 27 -16 35 -17 12 0 10 -3 -4 -9 -16 -7 -17 -9 -3 -9 9 -1 24 6 32 15
21 20 20 10 -5 -61 -24 -69 -35 -85 -58 -85 -14 0 -20 16 -29 78 -17 111 -16
126 20 245 27 89 37 109 55 113 13 4 20 10 17 16 -3 5 -12 7 -19 4 -9 -3 -9 4
3 27 8 18 16 34 18 36 1 1 31 13 66 26 67 24 95 20 127 -19z m49 12 c-7 -19
-38 -22 -38 -4 0 10 9 16 21 16 12 0 19 -5 17 -12z m52 -57 c2 0 -6 -8 -18
-17 -13 -9 -26 -13 -29 -10 -3 3 -12 1 -20 -5 -10 -9 -13 -8 -13 4 0 26 39 39
80 28z m580 -21 c9 -10 27 -16 42 -15 15 1 25 -1 23 -5 -3 -4 2 -13 10 -20 12
-10 13 -16 3 -29 -7 -9 -9 -13 -4 -9 5 4 17 3 28 -3 15 -8 17 -13 7 -25 -16
-19 -34 -3 -49 42 -7 19 -15 32 -20 29 -5 -3 -11 1 -14 7 -3 7 -3 2 0 -12 5
-22 2 -21 -26 12 -17 21 -39 42 -48 48 -14 9 -12 10 8 4 14 -3 32 -14 40 -24z
m282 -145 c15 -15 28 -34 28 -43 0 -13 2 -14 9 -4 4 8 12 13 17 12 20 -3 44
-35 45 -59 0 -19 2 -22 7 -9 6 15 10 14 34 -7 16 -14 25 -30 22 -38 -3 -8 -1
-18 5 -22 7 -3 11 3 11 16 0 18 2 19 15 9 8 -7 15 -15 15 -19 0 -3 -25 -37
-56 -76 -60 -74 -72 -88 -60 -67 4 6 5 12 2 12 -3 0 -10 -10 -17 -21 -8 -16
-8 -20 1 -14 6 4 2 -11 -9 -34 -12 -23 -24 -41 -27 -41 -3 0 -2 6 2 13 5 9 4
9 -6 0 -10 -9 -10 -15 -2 -26 9 -11 9 -23 -2 -53 l-15 -39 2 37 c1 20 5 34 10
31 4 -2 7 0 7 6 0 5 -5 13 -10 16 -6 3 -7 18 -4 33 3 15 6 35 7 45 1 9 4 17 8
17 4 0 3 12 -1 28 -19 59 -27 122 -16 115 6 -3 5 0 -1 8 -15 16 -17 53 -3 44
6 -4 10 -3 9 2 -1 4 1 16 6 26 5 11 3 23 -5 30 -10 9 -11 7 -5 -10 5 -18 2
-23 -13 -23 -21 0 -56 33 -45 43 3 4 14 7 24 7 10 0 21 4 24 10 4 6 -1 7 -11
3 -10 -4 -22 0 -29 11 -11 15 -13 15 -19 1 -3 -9 -2 -13 4 -10 6 3 10 1 10 -4
0 -6 -4 -11 -10 -11 -8 0 -70 110 -70 125 0 10 82 -42 112 -70z m-1237 38 c-2
-10 -9 -31 -15 -48 -25 -63 -28 -106 -16 -210 3 -33 6 -70 6 -82 0 -13 5 -23
10 -23 6 0 8 -11 4 -26 -5 -21 -4 -25 6 -19 10 6 11 2 6 -19 -5 -20 -4 -26 5
-20 9 5 10 0 5 -20 -3 -14 -2 -26 3 -26 4 0 12 -15 15 -32 l7 -33 24 55 c13
30 24 62 24 70 0 8 -10 -10 -22 -40 -14 -36 -22 -49 -25 -37 -2 10 6 40 17 67
22 51 27 75 11 50 -6 -9 -10 -10 -10 -3 0 18 21 27 30 13 4 -7 8 0 8 17 1 15
6 55 11 88 10 59 10 59 6 -26 -4 -92 -39 -249 -58 -261 -19 -11 33 -60 58 -54
18 5 18 4 3 -8 -11 -8 -14 -17 -7 -27 13 -20 11 -31 -3 -22 -8 4 -6 -4 4 -18
14 -22 15 -36 7 -95 -6 -38 -10 -83 -9 -100 1 -45 -50 -69 -145 -69 -127 0
-207 61 -220 168 -9 68 3 309 15 321 6 6 10 21 10 34 0 31 20 103 33 120 7 9
5 18 -7 30 -10 9 -16 12 -14 5 2 -6 -11 -22 -28 -35 -17 -13 -32 -26 -32 -31
-1 -4 -13 -28 -26 -55 -41 -81 -56 -149 -56 -256 l-1 -101 -20 38 c-11 21 -17
43 -13 49 4 6 3 8 -3 5 -6 -4 -14 0 -17 9 -3 8 -2 12 4 9 16 -10 12 0 -10 25
-19 22 -50 107 -50 136 0 8 26 32 58 55 96 70 84 75 -16 6 -37 -25 -42 -26
-33 -9 14 25 60 59 101 73 16 6 28 15 25 20 -3 4 9 16 27 25 18 9 58 41 90 72
41 38 62 52 74 48 15 -6 12 -13 -20 -45 -21 -22 -33 -41 -28 -45 6 -3 13 0 16
6 3 7 4 -6 2 -29 -2 -24 1 -40 5 -37 11 6 11 1 3 -20 -3 -9 -10 -16 -16 -16
-5 0 -6 5 -3 10 3 6 1 10 -4 10 -17 0 -13 -20 5 -27 12 -4 14 -14 10 -35 -3
-16 -2 -27 3 -23 5 3 12 28 16 55 4 31 11 48 17 43 7 -3 8 -1 4 5 -4 7 -15 12
-24 13 -10 0 -12 3 -5 5 8 4 10 16 6 35 -5 25 3 40 54 102 57 68 97 127 55 80
-16 -18 -21 -20 -26 -8 -3 8 -10 15 -16 15 -6 0 -4 -7 5 -16 15 -15 15 -18 0
-35 -9 -9 -24 -15 -33 -12 -15 4 -15 3 -2 -6 20 -15 12 -14 -46 5 -27 9 -55
18 -63 20 -11 4 -10 8 5 18 10 8 22 12 26 10 5 -3 8 0 8 5 0 6 7 11 15 11 8 0
19 9 25 20 9 16 13 18 24 8 8 -7 11 -17 8 -22 -3 -6 9 0 26 13 32 22 42 41 22
41 -5 0 -10 -7 -10 -15 0 -8 -9 -15 -20 -15 -27 0 -25 18 3 31 12 5 40 21 62
34 48 30 45 29 40 8z m537 -23 c-2 -17 1 -37 8 -45 7 -8 9 -15 4 -15 -5 1 -22
17 -37 38 l-28 37 28 6 c15 4 28 7 29 8 0 0 -1 -13 -4 -29z m1488 -104 c0 -20
-12 -27 -26 -15 -7 6 -10 17 -8 24 7 16 34 8 34 -9z m-1869 -77 c-4 -19 -7
-49 -6 -67 1 -18 -1 -32 -4 -32 -3 0 -6 -34 -5 -75 1 -41 -2 -75 -5 -75 -14 0
-27 37 -20 60 4 14 7 19 8 11 1 -8 4 -11 7 -8 4 4 2 13 -4 20 -8 9 -9 24 -3
43 4 16 6 46 3 68 -3 29 -1 37 8 31 7 -4 4 4 -5 19 -16 24 -14 31 8 27 4 0 6
2 6 7 -3 18 1 26 11 16 5 -5 6 -24 1 -45z m192 -99 c31 -52 11 -32 -27 28 -20
31 -27 45 -14 30 13 -15 32 -41 41 -58z m-270 -38 c-21 -28 -59 -46 -68 -32
-4 6 2 10 11 10 22 0 64 38 65 59 0 12 2 13 6 2 3 -7 -3 -25 -14 -39z m-37
-51 c-4 -5 0 -11 6 -14 10 -4 11 -7 1 -18 -7 -7 -13 -22 -13 -33 0 -28 -8 -16
-15 23 -4 23 -1 37 7 42 17 11 20 11 14 0z m94 -117 c0 -48 -19 -94 -40 -94
-28 0 -30 21 -7 99 20 67 22 70 34 49 7 -13 12 -37 13 -54z m1112 -580 c-4
-20 -2 -25 8 -19 8 5 11 3 8 -5 -2 -8 -10 -16 -16 -18 -8 -2 -12 10 -12 38 0
23 4 39 9 36 4 -3 6 -18 3 -32z"/>
<path d="M1442 1668 c-13 -13 -16 -38 -4 -38 4 0 22 -14 41 -30 20 -18 45 -30
61 -30 36 0 120 67 112 89 -6 14 -7 14 -10 -1 -4 -20 -17 -24 -27 -8 -3 6 -18
10 -33 9 l-27 -1 25 -8 c24 -8 24 -8 -7 -9 -17 -1 -33 4 -35 11 -3 8 -15 9
-46 1 -40 -10 -42 -10 -37 8 7 22 4 24 -13 7z m168 -50 c0 -14 -47 -31 -72
-25 -13 4 -32 13 -43 21 -18 13 -14 14 48 14 37 -1 67 -5 67 -10z"/>
<path d="M2087 1245 c12 -53 10 -73 -9 -128 -16 -46 -18 -61 -8 -70 10 -9 11
-6 5 13 -6 20 -5 23 6 13 7 -7 18 -13 24 -13 5 0 2 5 -7 11 -10 5 -18 15 -18
20 0 6 5 7 12 3 8 -5 9 0 6 14 -4 12 -2 22 4 22 6 0 8 7 5 15 -4 8 -3 16 1 19
10 6 2 76 -8 76 -5 0 -10 6 -13 13 -2 6 -2 3 0 -8z"/>
<path d="M2173 1148 c1 -7 -4 -12 -11 -10 -8 1 -11 -2 -7 -8 3 -5 -3 -24 -15
-40 -12 -17 -19 -30 -16 -30 6 0 66 86 66 94 0 3 -4 6 -10 6 -5 0 -9 -6 -7
-12z"/>
<path d="M670 1119 c-18 -5 -20 -7 -6 -8 15 -1 16 -4 7 -15 -10 -11 -8 -16 8
-21 27 -8 27 -30 -1 -49 -18 -13 -19 -16 -5 -16 9 0 16 -3 15 -7 -2 -5 0 -9 5
-10 16 -6 27 -3 27 8 0 5 -4 8 -9 4 -6 -3 -7 9 -4 30 4 26 2 36 -11 41 -12 5
-13 10 -5 26 13 24 10 27 -21 17z"/>
<path d="M734 981 c0 -11 4 -17 8 -15 4 3 12 -14 19 -36 7 -22 14 -38 17 -36
6 6 -30 106 -38 106 -3 0 -6 -9 -6 -19z"/>
<path d="M625 947 c-4 -18 -7 -38 -6 -46 1 -7 -2 -10 -7 -7 -5 3 -15 -1 -22
-9 -9 -10 -9 -15 -1 -15 6 0 11 4 11 8 0 5 7 9 16 9 11 0 14 -7 11 -23 -2 -13
-1 -22 2 -19 4 2 17 -25 30 -61 12 -35 27 -64 32 -64 13 0 6 -23 -11 -37 -13
-11 -13 -12 3 -7 10 4 25 0 36 -10 10 -9 21 -13 24 -9 6 6 11 -11 8 -29 0 -4
7 -4 16 -1 11 4 14 3 9 -5 -4 -7 0 -15 10 -19 10 -4 19 -2 22 5 2 7 8 9 13 6
6 -3 19 2 29 11 14 12 20 13 26 4 5 -8 3 -10 -6 -4 -10 6 -12 4 -7 -9 4 -9 3
-15 -2 -12 -4 3 -17 -4 -27 -15 -10 -11 -23 -18 -29 -15 -6 2 -19 -2 -30 -10
-28 -20 -76 -18 -82 4 -2 10 -15 19 -30 20 -47 4 -86 59 -62 88 8 10 8 14 0
14 -6 0 -11 -6 -12 -12 0 -7 -4 -4 -9 7 -6 13 -9 15 -9 5 -1 -27 36 -96 62
-117 15 -11 23 -23 19 -27 -3 -4 2 -4 12 0 13 5 17 4 13 -3 -5 -7 0 -9 13 -6
11 3 20 0 20 -6 0 -6 14 -11 31 -11 16 0 28 4 25 9 -3 4 7 13 22 20 24 10 25
10 9 -3 -16 -12 -16 -14 -2 -20 9 -3 14 -2 11 3 -3 4 8 21 24 36 17 16 30 25
30 19 1 -5 8 3 16 19 8 15 12 32 9 37 -3 6 -1 10 5 10 16 0 7 23 -11 26 -7 1
-23 5 -34 9 -15 5 -14 3 4 -8 l24 -14 -24 -17 c-26 -18 -69 -22 -69 -5 0 5 -4
7 -10 4 -9 -6 -14 8 -11 27 0 5 -4 7 -11 5 -7 -1 -13 5 -13 13 0 8 -7 14 -14
12 -9 -2 -11 3 -7 13 3 9 2 13 -4 10 -9 -6 -14 10 -13 43 1 6 -4 12 -9 12 -5
0 -6 10 -3 23 7 22 7 22 -9 2 -17 -20 -17 -20 -10 4 4 17 3 21 -6 16 -9 -5
-10 -1 -5 15 5 16 4 20 -4 15 -8 -5 -10 1 -5 21 5 21 4 25 -6 19 -10 -6 -12
-2 -7 16 4 13 7 30 7 37 0 6 5 12 10 12 6 0 9 -3 9 -7 -1 -5 0 -12 1 -18 2 -5
3 -21 4 -34 1 -13 7 -26 14 -29 11 -3 12 0 3 16 -9 16 -7 24 6 37 15 15 15 16
-3 13 -11 -2 -18 2 -17 9 2 7 -6 17 -16 22 -16 9 -20 6 -26 -22z"/>
<path d="M731 915 c-1 -12 -6 -26 -13 -33 -9 -9 -9 -15 1 -24 10 -9 12 -9 7
-1 -3 6 0 15 7 20 9 5 11 16 6 33 -6 21 -7 22 -8 5z"/>
<path d="M787 820 c-4 -14 -10 -19 -18 -14 -7 4 -10 3 -5 -4 3 -6 -3 -12 -16
-14 -12 -2 -23 -10 -25 -18 -4 -13 -3 -13 6 0 5 8 13 11 17 7 4 -3 2 -12 -4
-20 -7 -8 -7 -18 -2 -27 8 -13 11 -13 22 -1 10 10 10 12 1 7 -20 -11 -15 18 8
48 11 14 25 24 30 21 11 -8 11 6 0 23 -6 10 -10 8 -14 -8z"/>
<path d="M550 794 c-6 -14 -10 -33 -10 -42 0 -29 20 8 20 38 0 20 2 22 10 10
8 -13 10 -12 10 3 0 26 -19 21 -30 -9z"/>
<path d="M612 638 c15 -23 59 -40 74 -29 5 3 10 15 12 26 2 20 2 20 -10 0 -13
-21 -48 -23 -48 -4 0 6 -4 7 -10 4 -5 -3 -10 1 -10 9 0 9 -5 16 -11 16 -7 0
-6 -8 3 -22z"/>
<path d="M575 601 c33 -67 74 -94 144 -97 l56 -3 -56 8 c-71 10 -100 30 -133
91 -35 65 -44 65 -11 1z"/>
<path d="M2006 2206 c-37 -24 -80 -50 -97 -56 -16 -7 -28 -14 -26 -17 7 -6 79
30 129 65 26 18 57 36 70 42 15 5 17 9 7 9 -9 1 -46 -19 -83 -43z"/>
<path d="M2546 2223 c-3 -4 -6 -13 -6 -22 1 -14 2 -14 10 1 8 13 22 16 72 13
35 -2 57 0 49 4 -15 10 -116 12 -125 4z"/>
<path d="M168 2197 c-18 -13 -35 -32 -36 -42 -2 -11 -19 -33 -38 -48 -31 -26
-35 -27 -50 -13 -8 9 -23 16 -32 15 -13 0 -12 -2 4 -9 12 -5 25 -13 29 -19 8
-14 45 -14 45 -1 0 5 13 22 29 36 16 14 27 32 25 39 -6 15 55 55 83 55 12 0
26 -7 34 -16 11 -14 13 -14 21 1 17 29 88 -9 88 -47 0 -11 7 -18 20 -18 24 0
37 -27 21 -43 -6 -6 -11 -15 -11 -20 0 -5 8 1 18 13 l18 23 47 -21 c25 -11 57
-30 69 -42 19 -18 24 -19 26 -6 5 23 45 20 76 -5 21 -16 36 -20 62 -16 43 7
84 -7 84 -28 0 -11 11 -15 39 -15 22 0 42 -4 45 -9 6 -8 46 -22 46 -16 0 9
-66 35 -87 35 -14 0 -33 10 -43 23 -15 19 -27 22 -74 20 -31 -1 -56 2 -56 6 0
15 -59 33 -86 27 -17 -5 -32 -2 -43 7 -9 8 -36 22 -61 31 -45 17 -110 68 -110
86 0 18 -46 33 -107 36 -50 2 -68 -1 -95 -19z"/>
<path d="M2394 2199 c-9 -10 -22 -19 -28 -19 -24 0 -86 -38 -72 -43 8 -3 22 3
32 14 12 13 27 19 41 16 13 -2 23 -1 23 4 0 23 32 36 84 35 30 0 52 2 50 6 -3
4 -29 7 -59 7 -40 -1 -58 -6 -71 -20z"/>
<path d="M2702 2195 c15 -16 23 -17 62 -8 28 6 50 6 61 0 9 -5 19 -6 22 -3 14
14 -47 24 -86 14 -32 -8 -45 -7 -59 3 -16 12 -16 12 0 -6z"/>
<path d="M2254 2126 c-3 -8 -16 -17 -30 -20 -13 -4 -24 -11 -24 -16 0 -6 -6
-10 -14 -10 -8 0 -17 -4 -20 -9 -9 -14 32 -1 45 15 6 8 17 14 25 14 7 0 18 9
24 20 6 11 8 20 5 20 -3 0 -8 -6 -11 -14z"/>
<path d="M2443 2115 c-11 -8 -23 -25 -26 -37 -5 -19 -2 -17 19 9 24 32 28 33
90 31 35 -1 66 1 70 4 13 14 -133 7 -153 -7z"/>
<path d="M2948 2124 c-3 -3 -30 -7 -59 -8 -80 -5 -184 -22 -205 -34 -15 -9
-25 -5 -49 16 l-30 27 25 -30 c14 -16 26 -31 26 -33 1 -2 18 3 37 12 20 8 57
16 84 17 26 1 54 7 61 12 7 5 27 7 45 4 18 -3 46 1 62 8 17 7 25 14 19 14 -6
1 -13 -2 -16 -5z"/>
<path d="M1848 2083 c18 -2 45 -2 60 0 15 2 0 4 -33 4 -33 0 -45 -2 -27 -4z"/>
<path d="M2351 2054 c-12 -15 -21 -34 -21 -43 0 -9 8 -1 17 17 9 19 26 38 37
42 16 7 17 9 4 9 -9 1 -26 -11 -37 -25z"/>
<path d="M310 2056 c0 -22 28 -31 80 -25 l55 6 -55 1 c-31 1 -61 7 -68 14 -7
7 -12 9 -12 4z"/>
<path d="M2606 2019 c-14 -11 -26 -28 -26 -38 0 -25 -20 -42 -39 -32 -20 11
-59 -3 -67 -24 -4 -8 -16 -15 -29 -15 -13 0 -29 -10 -38 -23 -9 -13 -29 -30
-46 -37 -17 -7 -31 -16 -31 -21 0 -12 72 32 88 53 7 10 21 18 31 18 10 0 26 9
36 21 11 12 30 19 45 18 38 -3 60 10 60 36 0 26 17 43 57 55 22 7 24 8 7 9
-12 1 -33 -8 -48 -20z"/>
<path d="M470 2003 c17 -22 34 -32 53 -32 15 -1 27 -4 27 -8 0 -5 21 -8 48 -8
26 0 61 -4 77 -8 28 -7 29 -7 5 4 -14 6 -58 15 -99 20 -41 6 -79 16 -85 22 -6
7 -20 20 -31 27 -15 12 -14 8 5 -17z"/>
<path d="M2260 1990 c-6 -12 -16 -18 -23 -14 -8 5 -8 3 1 -7 10 -11 15 -9 28
10 11 15 23 21 35 18 11 -3 17 -1 13 4 -10 16 -43 9 -54 -11z"/>
<path d="M190 1989 c-64 -8 -77 -13 -96 -36 l-22 -28 -24 23 c-26 23 -48 29
-48 11 0 -5 4 -8 9 -5 5 3 15 -1 22 -10 7 -9 24 -20 37 -25 17 -7 22 -14 17
-29 -4 -12 -2 -20 6 -20 8 0 10 11 6 34 -8 49 18 69 93 72 33 1 64 5 69 9 12
7 61 -17 85 -40 9 -9 16 -12 16 -6 0 9 -81 63 -91 60 -2 -1 -38 -5 -79 -10z"/>
<path d="M2176 1981 c-3 -5 -15 -7 -25 -4 -11 3 -34 -2 -51 -11 -18 -8 -47
-18 -66 -22 -18 -3 -39 -13 -46 -23 -11 -14 -11 -14 3 -3 9 7 21 12 25 11 10
-2 40 8 67 22 12 6 17 5 17 -3 0 -7 5 -5 11 5 6 10 20 17 32 16 12 -1 29 1 37
4 8 3 22 8 30 10 10 4 7 6 -7 6 -12 1 -24 -3 -27 -8z"/>
<path d="M2835 1947 c-11 -7 -36 -12 -54 -12 -29 0 -38 -5 -50 -30 -9 -16 -19
-31 -23 -33 -17 -8 -7 -20 11 -15 11 3 17 11 15 18 -3 7 0 23 6 35 9 18 18 21
41 16 18 -3 39 1 57 11 28 16 31 16 56 0 25 -17 28 -17 43 -2 10 10 26 15 40
12 18 -3 21 -1 14 6 -8 8 -21 7 -47 -2 -26 -9 -39 -10 -47 -2 -14 14 -37 14
-62 -2z"/>
<path d="M385 1904 c16 -8 34 -22 38 -30 8 -14 11 -14 25 -1 12 10 33 14 65
12 53 -4 77 -18 77 -46 0 -21 8 -24 30 -8 12 9 12 10 -4 5 -14 -5 -17 -2 -13
13 3 13 -3 22 -22 31 -33 15 -113 21 -131 10 -9 -5 -22 -2 -38 11 -14 10 -32
19 -41 19 -9 0 -3 -7 14 -16z"/>
<path d="M2058 1883 c23 -2 59 -2 80 0 20 2 1 4 -43 4 -44 0 -61 -2 -37 -4z"/>
<path d="M108 1855 c-5 -22 -3 -23 10 -13 13 11 14 9 7 -12 -8 -27 -24 -42
-37 -34 -4 3 -8 0 -8 -5 0 -6 -5 -11 -11 -11 -5 0 -7 5 -3 11 4 8 -1 9 -17 4
-23 -8 -23 -8 -5 21 l17 29 -24 -29 c-18 -20 -26 -24 -30 -15 -3 8 -4 1 -3
-15 2 -37 30 -57 48 -35 17 21 46 31 53 19 3 -6 16 -15 28 -21 21 -12 21 -11
5 8 -20 21 -24 43 -9 43 6 0 8 12 7 28 -2 15 -4 33 -5 40 -2 22 -19 13 -23
-13z"/>
<path d="M2313 1861 c-12 -12 -34 -19 -62 -20 -25 0 -52 -8 -61 -16 -9 -8 -25
-15 -36 -16 -10 0 -28 -4 -39 -9 -14 -7 -8 -8 20 -3 22 3 49 11 60 18 11 7 40
13 65 14 27 2 48 9 53 18 5 8 18 18 30 23 17 7 18 9 5 9 -10 1 -25 -7 -35 -18z"/>
<path d="M2615 1844 c-32 -28 -34 -32 -10 -17 17 10 35 23 40 30 6 6 19 13 30
16 20 5 20 5 0 5 -11 1 -38 -15 -60 -34z"/>
<path d="M682 1797 c18 -18 78 -38 78 -26 0 12 37 12 45 -1 3 -5 14 -10 23
-10 11 0 6 6 -12 15 -18 10 -41 13 -58 9 -19 -4 -37 0 -53 10 -29 19 -41 21
-23 3z"/>
<path d="M2950 1800 c0 -5 -7 -10 -16 -10 -19 0 -64 -48 -64 -67 0 -7 -9 -13
-19 -13 -10 0 -32 -16 -48 -35 -24 -30 -38 -36 -105 -50 -43 -9 -108 -16 -145
-16 -38 0 -104 -10 -148 -21 -44 -11 -102 -24 -130 -28 -27 -3 -68 -14 -89
-23 -22 -10 -48 -15 -59 -11 -12 4 -17 2 -13 -4 3 -6 -16 -16 -47 -23 -28 -7
-44 -15 -35 -17 10 -2 64 13 122 32 57 20 118 36 134 36 17 0 43 5 59 11 50
20 146 36 216 37 37 1 84 6 105 11 45 12 122 18 119 10 -4 -11 25 -39 41 -39
8 0 20 7 26 16 7 9 28 16 51 17 25 1 45 8 53 19 7 10 20 18 28 18 8 0 14 7 14
15 0 18 -20 20 -20 3 -1 -8 -7 -5 -15 6 -13 17 -14 17 -12 -10 2 -29 -3 -32
-37 -18 -12 4 -17 4 -13 -2 3 -5 -15 -17 -39 -26 -44 -16 -46 -16 -53 5 -11
27 13 77 35 77 14 0 14 -3 4 -15 -23 -28 1 -15 33 17 19 18 25 29 14 25 -16
-6 -16 -5 -1 18 19 29 78 60 93 50 6 -3 11 -1 11 4 0 6 -11 11 -25 11 -14 0
-25 -4 -25 -10z"/>
<path d="M2567 1793 c-4 -3 -7 -13 -7 -21 0 -8 -14 -28 -32 -44 -17 -15 -26
-28 -19 -28 6 0 14 7 17 15 4 8 10 15 16 15 16 0 33 24 34 48 1 24 0 25 -9 15z"/>
<path d="M220 1781 c-30 -7 -25 -8 40 -14 110 -11 386 -19 379 -12 -4 3 -57 6
-120 6 -101 1 -151 5 -239 22 -14 3 -41 2 -60 -2z"/>
<path d="M2055 1782 c-11 -4 -32 -15 -47 -25 -14 -10 -59 -24 -100 -32 l-73
-14 84 5 c47 2 87 7 90 9 2 3 -2 5 -10 5 -8 0 1 9 19 20 18 11 39 20 47 20 7
0 17 5 20 10 7 11 0 11 -30 2z"/>
<path d="M2300 1688 c-25 -3 -85 -11 -135 -18 -49 -6 -103 -15 -120 -20 -16
-5 -61 -14 -100 -19 l-70 -10 85 6 c47 3 91 10 97 15 7 6 24 8 38 6 14 -3 28
-2 30 3 3 4 29 10 58 13 28 3 75 8 102 11 28 3 68 5 90 5 22 0 56 4 75 9 29 6
22 8 -35 7 -38 -1 -90 -4 -115 -8z"/>
<path d="M29 1661 c-9 -10 -16 -24 -17 -32 -1 -8 -4 -36 -7 -64 -5 -39 -4 -46
5 -32 6 9 8 22 5 27 -4 6 -1 26 5 44 11 34 12 34 58 30 30 -3 42 -1 34 4 -8 5
-14 13 -15 18 -1 4 -10 9 -20 9 -12 1 -16 -3 -12 -12 3 -9 0 -13 -7 -10 -7 2
-12 11 -10 21 4 20 1 19 -19 -3z"/>
<path d="M2425 1660 c-34 -6 -35 -7 -10 -8 17 0 50 3 75 7 40 8 41 8 10 8 -19
0 -53 -3 -75 -7z"/>
<path d="M2158 1633 c18 -2 45 -2 60 0 15 2 0 4 -33 4 -33 0 -45 -2 -27 -4z"/>
<path d="M89 1577 c-1 -4 -2 -11 -3 -17 0 -5 -5 -9 -9 -7 -5 1 -13 -6 -18 -15
-12 -22 -33 -24 -25 -2 3 9 2 12 -5 9 -5 -4 -8 -12 -6 -18 2 -7 -2 -18 -10
-25 -27 -27 -12 -33 19 -7 31 26 39 27 97 9 18 -5 23 -4 19 7 -2 7 -14 14 -26
14 -28 0 -29 20 -2 21 27 2 39 14 14 14 -11 0 -25 5 -32 12 -7 7 -13 9 -13 5z"/>
<path d="M2947 1566 c-4 -9 -3 -15 2 -12 11 7 33 -43 25 -56 -4 -6 -2 -8 4 -4
5 3 12 0 15 -6 2 -7 4 -1 3 14 0 16 -4 28 -8 28 -4 0 -14 12 -21 26 -12 22
-15 24 -20 10z"/>
<path d="M290 1530 c0 -15 35 -29 58 -23 27 7 92 -15 92 -32 0 -7 11 -16 25
-19 14 -4 30 -17 35 -29 7 -18 9 -19 9 -4 1 10 6 15 11 12 6 -4 8 -10 5 -15
-3 -4 2 -10 10 -14 8 -3 15 -13 15 -21 0 -9 4 -14 9 -10 5 3 12 1 16 -5 3 -5
14 -10 22 -10 13 0 11 5 -7 23 -14 12 -28 22 -32 22 -5 0 -9 5 -10 10 -3 15
-27 37 -36 32 -4 -3 -16 1 -27 9 -20 15 -14 18 38 14 15 -1 27 2 27 7 0 4 -15
8 -32 8 -41 -1 -98 15 -98 27 0 5 -4 6 -10 3 -5 -3 -10 -2 -10 3 0 10 -42 8
-59 -2 -5 -3 -16 1 -24 9 -18 17 -27 19 -27 5z"/>
<path d="M1905 1519 c-45 -10 -67 -18 -50 -18 17 -1 48 4 70 10 22 7 63 15 90
19 47 7 47 7 10 7 -22 0 -76 -8 -120 -18z"/>
<path d="M2840 1514 c0 -12 -3 -14 -13 -6 -8 7 -17 7 -28 -2 -14 -10 -11 -14
25 -29 25 -10 34 -11 24 -3 -22 17 -12 29 13 15 14 -7 18 -16 13 -34 -7 -26
10 -35 19 -11 7 19 -13 61 -35 75 -15 9 -18 8 -18 -5z"/>
<path d="M162 1508 c-17 -17 -15 -28 7 -28 11 0 23 -4 26 -10 8 -14 25 -13 25
2 0 6 -3 9 -6 5 -7 -7 -29 12 -35 31 -3 10 -7 10 -17 0z"/>
<path d="M583 1482 c-46 -7 -21 -22 40 -24 l62 -2 -70 -6 -70 -6 80 -1 c70 -1
187 11 160 17 -16 3 -56 7 -115 10 -30 2 -57 6 -60 9 -3 4 -15 5 -27 3z"/>
<path d="M220 1437 c0 -7 9 -13 20 -14 11 -1 20 4 20 13 0 8 -9 14 -20 14 -11
0 -20 -6 -20 -13z"/>
<path d="M65 1430 c-4 -6 -11 -8 -16 -4 -16 10 -43 -37 -45 -76 l-1 -35 14 32
c18 45 54 67 95 58 31 -6 32 -6 13 8 -10 8 -26 12 -34 9 -9 -3 -12 -1 -7 6 4
7 3 12 -3 12 -5 0 -13 -5 -16 -10z"/>
<path d="M1358 1379 c-10 -5 -18 -20 -18 -32 1 -21 1 -21 15 3 7 14 24 28 37
31 20 6 20 7 3 8 -11 0 -28 -4 -37 -10z"/>
<path d="M2719 1367 c13 -16 13 -20 0 -28 -10 -6 -7 -9 13 -9 15 0 30 5 34 11
3 6 17 9 30 6 18 -3 22 -1 14 8 -5 6 -6 16 -2 21 4 4 -1 2 -10 -5 -10 -7 -18
-10 -18 -5 0 4 -5 3 -11 -3 -9 -9 -18 -7 -38 5 -25 16 -25 16 -12 -1z"/>
<path d="M55 1362 c-11 -11 -4 -20 20 -24 13 -3 22 -2 20 3 -3 4 1 9 7 11 7 3
1 7 -14 10 -15 3 -30 3 -33 0z"/>
<path d="M2930 1335 c-11 -13 -10 -18 6 -29 12 -9 21 -11 25 -4 4 7 8 7 10 -1
3 -7 9 -7 19 -1 12 7 8 12 -17 21 -18 6 -30 15 -27 20 9 15 -3 10 -16 -6z"/>
<path d="M470 1310 c25 -8 117 -14 109 -6 -2 2 -33 6 -69 9 -41 4 -56 3 -40
-3z"/>
<path d="M1128 1275 c2 -14 9 -25 16 -25 6 0 2 -7 -8 -15 -10 -8 -23 -12 -27
-9 -5 3 -17 0 -26 -6 -14 -9 -8 -10 27 -5 24 3 46 8 48 10 6 5 -18 64 -28 70
-4 2 -5 -7 -2 -20z"/>
<path d="M2956 1281 c-4 -6 2 -28 13 -47 26 -44 27 -74 1 -102 -24 -25 -10
-31 14 -6 12 12 15 31 13 80 -2 35 -7 67 -11 71 -4 4 -4 -1 -1 -12 5 -14 2
-13 -8 4 -9 16 -17 20 -21 12z"/>
<path d="M1706 1261 c-13 -5 -16 -10 -9 -14 7 -4 14 -3 18 3 9 14 48 13 65 -2
12 -11 12 -10 1 5 -14 18 -42 21 -75 8z"/>
<path d="M65 1241 c-3 -5 4 -12 15 -16 11 -4 18 -10 15 -14 -2 -5 19 -11 48
-14 103 -12 147 -20 147 -27 0 -5 9 -6 20 -3 11 3 32 0 48 -6 35 -15 92 -22
92 -12 0 5 -27 14 -60 20 -48 10 -58 15 -54 29 4 11 3 13 -3 5 -10 -14 -133
-9 -163 7 -11 6 -20 8 -20 4 0 -4 -9 1 -20 11 -11 10 -20 14 -20 10 0 -5 -5
-4 -12 3 -14 14 -25 15 -33 3z"/>
<path d="M405 1230 c17 -4 48 -8 70 -8 38 0 38 1 10 8 -16 4 -48 8 -70 8 -38
0 -38 -1 -10 -8z"/>
<path d="M1324 1204 c-4 -10 -14 -28 -23 -38 -14 -16 -14 -18 -1 -14 17 5 45
56 36 65 -3 3 -9 -3 -12 -13z"/>
<path d="M2520 1205 c0 -9 -9 -15 -26 -15 -17 0 -23 -4 -18 -12 6 -10 4 -10
-8 0 -13 10 -17 10 -20 0 -3 -8 -31 -15 -79 -19 l-74 -6 68 -1 c74 -2 278 45
256 59 -12 7 -47 4 -57 -5 -2 -3 -13 -1 -23 5 -15 7 -19 6 -19 -6z"/>
<path d="M1686 1163 c-3 -3 -6 -13 -6 -22 0 -14 2 -14 9 -2 8 12 14 13 36 3
14 -7 36 -12 48 -12 18 0 19 -2 7 -11 -12 -8 -10 -9 7 -4 18 5 21 3 18 -14 -2
-11 -1 -20 3 -20 21 3 31 -3 35 -23 l4 -23 2 23 c1 28 -49 82 -76 82 -11 0
-24 5 -31 12 -7 7 -12 9 -12 5 0 -4 -8 -3 -19 2 -10 6 -21 7 -25 4z"/>
<path d="M2901 1158 c-1 -15 -5 -16 -27 -8 -21 8 -25 8 -21 -4 3 -8 -5 -18
-20 -25 -31 -14 -161 -33 -174 -25 -5 3 -9 1 -9 -4 0 -15 -37 -21 -49 -9 -8 8
-11 6 -11 -6 0 -13 -7 -15 -35 -12 -20 3 -35 0 -35 -5 0 -6 -3 -9 -7 -8 -5 0
-15 -1 -23 -5 -34 -13 -60 -15 -60 -4 0 6 -6 4 -12 -5 -7 -9 -35 -19 -62 -23
-27 -4 -58 -11 -70 -15 -14 -7 -8 -7 21 -3 24 3 62 6 87 7 24 0 42 4 40 7 -2
4 42 16 99 28 149 30 304 66 367 86 64 20 93 41 43 32 -20 -4 -33 -2 -37 6 -2
7 -5 5 -5 -5z"/>
<path d="M1856 1152 c-6 -10 0 -130 8 -152 3 -8 5 -26 4 -40 -1 -23 7 -122 22
-270 1 -14 8 9 14 50 8 49 16 74 24 73 7 -2 11 0 11 5 -1 4 -1 9 1 12 10 27 7
49 -8 55 -13 5 -14 3 -5 -6 12 -12 7 -39 -10 -50 -5 -4 -13 -22 -18 -40 -5
-22 -6 3 -2 66 3 56 11 104 17 108 7 6 6 7 -4 4 -10 -2 -17 -22 -21 -53 -4
-30 -6 -12 -4 46 2 65 1 87 -6 70 -7 -20 -8 -15 -5 22 2 31 0 45 -7 41 -6 -4
-7 7 -3 31 7 34 3 46 -8 28z"/>
<path d="M1517 1134 c5 -13 2 -16 -8 -12 -24 9 -59 -9 -52 -28 5 -15 7 -15 15
0 5 9 20 16 33 16 25 0 35 23 15 35 -6 4 -7 -1 -3 -11z"/>
<path d="M1700 1135 c-2 -5 -4 -30 -5 -55 l-1 -45 18 42 c14 32 23 41 36 37
14 -5 14 -4 2 4 -9 7 -18 8 -26 1 -9 -7 -14 -5 -17 8 -3 10 -6 14 -7 8z"/>
<path d="M1170 1082 c0 -7 15 -16 33 -21 17 -5 26 -10 20 -10 -7 -1 -13 -5
-13 -11 0 -5 3 -9 8 -9 20 3 23 -3 11 -18 -12 -16 -12 -17 2 -6 9 7 20 9 25 5
5 -4 1 2 -8 13 -21 26 -23 36 -6 47 8 5 3 6 -15 2 -16 -4 -33 -1 -42 6 -10 8
-15 9 -15 2z"/>
<path d="M1500 1061 c0 -11 5 -23 10 -26 7 -4 7 -12 0 -25 -7 -13 -6 -21 4
-29 18 -15 27 -2 15 20 -5 11 -7 19 -3 19 3 0 1 7 -6 15 -7 8 -10 22 -6 30 3
8 1 15 -4 15 -6 0 -10 -9 -10 -19z"/>
<path d="M1719 1059 c-5 -10 -9 -24 -8 -31 0 -7 4 -3 9 10 5 12 14 22 20 22 7
0 8 -6 1 -19 -13 -24 -5 -32 24 -21 13 5 26 6 31 2 4 -4 4 -1 0 6 -4 7 -11 10
-16 7 -7 -5 -24 23 -22 36 2 14 -30 4 -39 -12z"/>
<path d="M2953 1063 c8 -13 -57 -38 -73 -28 -5 3 -10 2 -10 -3 0 -8 -51 -32
-67 -32 -2 0 -2 10 2 23 6 21 5 21 -9 3 -8 -10 -20 -15 -27 -10 -8 4 -10 3 -5
-4 4 -7 1 -12 -8 -12 -8 0 -17 8 -19 18 -4 13 -5 11 -6 -5 -1 -25 -17 -31 -24
-10 -2 6 -6 -1 -9 -16 -4 -23 -2 -27 11 -22 16 7 93 18 124 19 9 0 17 3 17 7
0 9 90 33 114 30 11 -2 16 2 12 8 -4 6 0 11 8 11 9 0 16 5 16 10 0 6 -4 10 -9
10 -5 0 -17 3 -27 7 -11 4 -15 3 -11 -4z"/>
<path d="M2 1034 c3 -15 16 -20 67 -26 35 -4 93 -19 128 -33 35 -14 71 -25 81
-24 9 0 2 6 -17 13 -19 7 -36 17 -39 24 -2 6 -11 8 -19 5 -13 -5 -15 -2 -10
12 6 15 5 16 -8 5 -11 -9 -18 -10 -28 -1 -8 6 -17 8 -20 4 -4 -3 -16 2 -28 12
-16 15 -22 17 -28 6 -7 -11 -11 -9 -20 5 -6 11 -11 14 -11 8 0 -7 -9 -14 -20
-17 -11 -3 -18 -1 -15 3 3 5 0 12 -6 15 -7 5 -10 0 -7 -11z"/>
<path d="M1819 1036 c-1 -3 -2 -12 -3 -18 -1 -7 -13 -13 -28 -13 -15 1 -24 -4
-21 -9 4 -6 -1 -6 -13 -2 -10 4 -15 4 -11 0 9 -9 -13 -35 -24 -28 -5 3 -9 0
-9 -5 0 -6 5 -11 11 -11 6 0 8 -9 4 -22 -5 -19 -4 -20 5 -8 9 12 11 10 7 -12
-5 -30 7 -38 17 -13 3 9 0 24 -6 35 -10 15 -9 23 6 39 28 31 54 26 78 -14 11
-20 23 -34 26 -31 2 3 -7 21 -22 41 -15 19 -23 35 -17 35 5 0 17 -10 25 -22 9
-12 16 -17 16 -11 0 6 -7 16 -15 23 -9 7 -14 19 -11 26 3 7 1 16 -4 19 -6 4
-11 4 -11 1z"/>
<path d="M2181 1004 c-1 -7 6 -49 15 -95 19 -100 21 -309 3 -309 -3 0 -11 -12
-18 -27 -13 -28 -13 -28 8 -9 32 29 44 90 37 191 -6 98 -42 294 -45 249z"/>
<path d="M1363 984 c-5 -13 -7 -13 -14 -2 -5 7 -9 9 -9 3 0 -5 5 -17 10 -25 7
-11 10 -11 10 -2 0 7 5 10 11 6 8 -4 8 -9 0 -17 -6 -6 -11 -16 -11 -21 0 -6 5
-4 11 4 8 11 9 8 4 -13 -5 -24 -4 -27 9 -15 7 7 12 16 10 19 -7 12 45 16 55 6
8 -8 11 -7 11 1 0 7 -5 12 -11 12 -5 0 -8 4 -4 9 3 6 -6 8 -21 5 -30 -6 -55
11 -47 32 3 8 2 14 -1 14 -4 0 -9 -7 -13 -16z"/>
<path d="M2464 991 c4 -5 -10 -11 -31 -14 -23 -2 -11 -4 30 -5 38 -1 77 -7 87
-12 10 -6 37 -11 59 -12 22 -1 38 -5 35 -10 -3 -4 14 -8 38 -8 37 -1 40 -2 24
-12 -11 -6 -36 -12 -55 -14 -20 -1 -37 -3 -38 -4 -2 -2 -9 -3 -15 -4 -7 -1
-12 -8 -10 -16 3 -11 0 -11 -12 -1 -10 8 -16 9 -21 1 -5 -8 -10 -8 -20 0 -8 7
-14 7 -17 1 -1 -5 -24 -11 -50 -12 -27 -2 -54 -7 -60 -11 -8 -5 17 -8 60 -6
41 2 74 -1 76 -7 3 -6 8 -6 13 1 7 11 150 59 164 56 3 0 10 8 17 19 11 17 9
19 -20 21 -18 0 -39 1 -47 1 -9 -1 -10 2 -2 10 16 16 14 27 -5 27 -8 0 -12 -4
-9 -10 3 -6 -4 -10 -17 -10 -19 0 -20 2 -8 11 11 8 7 9 -17 4 -18 -4 -48 -2
-65 3 -61 19 -90 23 -84 13z"/>
<path d="M1040 974 c0 -6 9 -37 20 -69 23 -66 27 -100 9 -75 -9 12 -10 11 -4
-5 11 -33 18 -142 7 -127 -6 9 -11 -1 -15 -35 -3 -26 -9 -57 -12 -68 -6 -17
-5 -17 5 -5 9 12 10 8 4 -20 -9 -46 -62 -564 -58 -569 6 -6 12 43 39 289 15
135 33 279 41 320 8 45 13 132 13 215 -1 91 -4 126 -9 100 -4 -22 -8 -33 -9
-24 -1 21 -30 88 -31 73z"/>
<path d="M1549 973 c-1 -5 -1 -11 0 -15 0 -4 -3 -18 -9 -32 -7 -19 -5 -27 8
-38 15 -11 15 -11 6 2 -18 23 1 63 25 55 16 -5 18 -2 14 15 -5 19 -42 29 -44
13z"/>
<path d="M1772 939 c-1 -16 3 -29 8 -29 6 0 8 -5 5 -10 -4 -6 -11 -7 -17 -4
-7 5 -8 2 -2 -7 12 -20 14 -69 3 -69 -5 0 -8 -12 -8 -27 1 -21 2 -23 6 -8 3
11 12 28 21 38 8 9 11 17 5 17 -5 0 -10 7 -10 15 0 19 6 19 29 -2 10 -9 18
-12 18 -6 0 5 -11 16 -25 23 -18 10 -22 16 -13 21 10 7 10 11 0 21 -19 19 -15
41 8 35 11 -3 18 -2 15 3 -3 4 -13 10 -23 12 -14 4 -18 -1 -20 -23z"/>
<path d="M2948 940 c-2 -7 -16 -13 -31 -13 -15 -1 -27 -5 -27 -8 0 -3 -33 -12
-72 -19 -71 -12 -137 -35 -73 -25 17 3 44 7 60 9 102 16 195 42 195 55 0 10
-3 11 -13 2 -10 -7 -17 -7 -24 0 -8 8 -12 7 -15 -1z"/>
<path d="M1695 916 c0 -13 4 -22 9 -18 5 3 7 -5 4 -16 -4 -12 -1 -22 4 -22 6
0 8 12 4 31 -3 17 -6 35 -6 40 0 5 -3 9 -7 9 -5 0 -8 -11 -8 -24z"/>
<path d="M190 902 c0 -5 6 -9 13 -9 6 0 26 -4 42 -8 l30 -7 -29 16 c-31 17
-56 21 -56 8z"/>
<path d="M1735 857 c-19 -15 -30 -67 -14 -67 5 0 9 -4 9 -10 0 -5 -7 -10 -15
-10 -8 0 -15 -7 -15 -15 0 -9 -12 -27 -27 -40 -16 -13 -22 -25 -15 -25 6 0 12
6 12 13 0 7 7 4 15 -7 8 -11 15 -27 15 -35 -1 -14 -3 -13 -14 2 -27 35 -76 12
-90 -43 -5 -17 -1 -14 11 10 23 45 51 50 79 15 l22 -28 7 32 c3 17 13 31 21
31 8 0 14 10 14 24 0 13 2 33 5 43 3 10 -1 5 -9 -12 -8 -16 -12 -33 -9 -37 2
-5 0 -8 -6 -8 -5 0 -12 6 -14 13 -3 6 -6 3 -6 -7 -1 -11 -4 -17 -7 -14 -11 12
8 79 21 74 8 -3 15 5 18 20 3 17 0 24 -12 24 -13 1 -13 3 3 15 11 8 14 15 8
15 -7 0 -12 5 -12 11 0 6 7 9 15 5 9 -3 15 0 15 9 0 18 -2 18 -25 2z"/>
<path d="M2782 820 c-12 -28 -17 -52 -11 -55 5 -4 9 3 9 14 0 19 15 26 42 22
11 -1 42 49 34 56 -3 3 -6 1 -6 -5 0 -6 -13 -17 -29 -25 -30 -15 -30 -15 -20
10 18 48 2 34 -19 -17z"/>
<path d="M1136 805 c6 -48 12 -142 33 -520 11 -204 20 -287 32 -279 13 8 11
54 -2 54 -8 0 -10 18 -5 61 6 46 4 59 -5 53 -9 -5 -10 0 -5 20 3 15 0 133 -9
264 -18 279 -25 350 -37 377 -5 13 -6 2 -2 -30z"/>
<path d="M1226 834 c-8 -22 -8 -26 4 -19 7 4 8 -3 4 -21 -5 -19 -4 -25 5 -20
9 6 10 0 5 -20 -5 -21 -4 -25 6 -19 9 5 11 4 6 -3 -4 -7 9 -81 28 -164 19 -84
38 -172 42 -195 4 -24 10 -40 14 -38 5 3 6 -14 4 -37 -4 -38 -3 -40 7 -18 14
33 -7 164 -24 153 -9 -5 -9 -3 -1 8 13 16 14 49 2 49 -5 0 -5 12 -2 26 4 17 3
25 -3 21 -6 -4 -8 3 -5 18 2 15 0 25 -7 25 -6 0 -11 5 -11 11 0 5 4 8 8 5 4
-2 8 5 9 17 0 12 -1 16 -4 10 -3 -7 -9 -13 -14 -13 -19 0 -8 18 27 42 21 15
31 29 25 32 -6 4 -11 2 -11 -3 0 -6 -9 -11 -21 -11 -15 0 -19 5 -15 16 3 8 2
12 -4 9 -5 -3 -14 3 -20 14 -14 27 8 40 27 16 7 -11 13 -14 13 -8 0 5 -9 18
-20 28 -11 10 -17 22 -13 28 3 6 1 7 -5 3 -6 -3 -16 3 -22 14 -6 11 -8 20 -4
20 3 0 1 6 -5 13 -6 8 -8 17 -4 20 3 4 2 7 -4 7 -6 0 -14 -7 -17 -16z"/>
<path d="M1448 823 c-29 -15 -34 -28 -19 -52 6 -9 11 -10 15 -2 4 6 2 11 -3
11 -6 0 -11 7 -11 16 0 8 4 13 9 10 5 -3 14 1 21 9 7 8 16 12 21 9 5 -3 9 0 9
5 0 14 -8 13 -42 -6z"/>
<path d="M2590 830 c8 -6 44 -9 78 -9 42 2 67 -2 72 -10 5 -10 9 -9 13 3 9 22
3 23 -93 25 -61 1 -81 -1 -70 -9z"/>
<path d="M40 798 c0 -4 -8 -8 -17 -9 -10 0 7 -7 37 -15 72 -19 165 -83 147
-100 -3 -4 -19 -7 -35 -9 -16 -1 -34 -5 -40 -8 -6 -4 -15 5 -21 20 -7 18 -10
20 -7 7 3 -17 0 -20 -17 -16 -14 3 -18 1 -13 -6 5 -8 -1 -12 -16 -13 -22 0 29
-17 119 -39 23 -5 61 -19 83 -31 33 -17 38 -24 29 -35 -13 -16 -23 -19 -15 -5
3 5 -1 12 -10 15 -11 4 -15 2 -11 -7 3 -8 -7 -18 -24 -26 -17 -7 -26 -17 -22
-24 4 -6 0 -8 -10 -4 -30 11 -18 1 34 -32 68 -42 54 -58 -26 -30 -33 11 -66
25 -72 31 -9 7 -13 7 -13 0 0 -5 -9 -8 -20 -5 -11 3 -18 9 -15 13 2 4 -7 5
-21 2 -38 -7 -18 -18 71 -37 86 -18 115 -36 116 -69 0 -18 2 -16 11 7 5 15 15
27 22 27 17 0 13 43 -5 48 -15 5 -48 42 -49 55 0 4 24 8 53 8 28 1 42 4 30 6
-40 8 -25 23 21 23 25 0 47 4 50 9 3 4 -7 6 -22 4 -19 -3 -23 -2 -13 5 10 7 6
11 -15 15 -32 5 -96 29 -104 37 -3 3 -18 7 -35 8 -30 2 -53 16 -38 24 4 2 27
10 51 18 23 7 42 17 42 22 0 4 -3 8 -7 8 -5 0 -21 11 -37 25 -16 14 -34 26
-40 27 -6 0 12 4 39 8 l50 7 -52 1 c-53 2 -136 28 -129 41 3 4 -4 7 -15 7 -10
0 -19 -4 -19 -8z"/>
<path d="M1813 788 c-30 -39 -18 -69 27 -67 24 1 24 1 -5 12 -21 8 -30 18 -27
30 2 9 8 15 13 12 5 -4 9 1 9 9 0 19 -4 20 -17 4z"/>
<path d="M2160 769 c0 -9 -3 -31 -6 -48 -5 -21 -3 -31 6 -31 7 0 10 7 6 16 -4
9 -1 22 5 30 7 9 7 18 0 31 -9 15 -10 16 -11 2z"/>
<path d="M1775 755 c-3 -8 -7 -21 -9 -29 -5 -15 13 -26 42 -26 12 0 11 4 -7
16 -15 11 -21 23 -18 35 6 22 -2 26 -8 4z"/>
<path d="M1743 655 c-10 -11 -10 -15 0 -18 7 -3 5 -6 -5 -6 -10 -1 -20 -12
-24 -26 -8 -32 -31 -44 -64 -34 l-25 7 25 2 25 2 -23 6 -23 7 22 23 c16 18 19
26 9 35 -6 7 -10 8 -9 2 6 -18 -21 -56 -34 -48 -8 5 -8 2 1 -9 10 -13 10 -17
0 -21 -11 -4 -11 -6 0 -6 10 -1 10 -6 2 -21 -6 -11 -9 -20 -8 -21 24 -6 35 -4
35 7 0 7 -4 11 -9 8 -4 -3 -8 0 -8 5 0 18 25 13 56 -11 20 -15 24 -17 15 -5
-11 14 -11 21 -3 29 9 9 12 8 12 -4 0 -9 6 -18 13 -21 9 -3 9 -7 0 -17 -6 -7
-9 -18 -7 -25 6 -15 -68 -31 -87 -19 -8 4 -9 3 -5 -4 4 -7 14 -12 22 -12 8 0
27 -8 42 -17 l27 -17 -20 23 c-20 23 -20 23 0 20 32 -5 45 9 45 52 0 21 4 39
9 39 13 0 20 -64 9 -71 -6 -4 5 -9 23 -12 19 -3 45 -8 59 -11 14 -3 18 -3 10
0 -8 4 -20 13 -28 20 -7 7 -19 11 -27 8 -15 -6 -32 54 -22 81 4 8 2 17 -3 20
-6 4 -10 0 -10 -7 0 -7 -10 -19 -21 -27 -19 -11 -21 -11 -15 4 3 9 6 26 6 37
0 14 5 18 15 14 9 -3 15 0 15 8 0 8 3 21 6 30 8 20 -7 20 -23 1z"/>
<path d="M2915 639 c-50 -32 -67 -48 -86 -84 -7 -13 -3 -11 10 5 11 14 21 21
21 15 0 -5 6 1 13 14 6 13 36 37 66 52 30 16 47 29 39 29 -8 0 -36 -14 -63
-31z"/>
<path d="M25 593 c5 -18 2 -23 -11 -23 -10 0 -14 -3 -10 -7 7 -7 35 -10 144
-13 23 0 40 -4 38 -9 -3 -4 6 -6 19 -3 25 4 37 25 13 21 -36 -6 -139 15 -148
30 -8 14 -9 13 -10 -4 0 -18 -2 -18 -21 5 -20 24 -20 24 -14 3z"/>
<path d="M2727 593 c-4 -6 -3 -14 3 -18 7 -4 7 -13 -1 -26 -6 -12 -8 -23 -6
-26 3 -2 9 6 13 19 7 22 7 22 15 3 7 -19 8 -19 8 3 1 12 -3 22 -8 22 -5 0 -11
8 -13 18 -2 12 -6 13 -11 5z"/>
<path d="M2125 568 c3 -16 2 -28 -3 -28 -4 0 -13 -15 -20 -33 -14 -39 -15 -47
-4 -47 4 0 16 22 26 49 14 39 15 54 6 68 -10 15 -10 14 -5 -9z"/>
<path d="M1498 543 c-16 -8 -28 -22 -28 -31 1 -16 1 -16 11 1 5 9 17 17 24 17
8 0 15 5 15 11 0 5 5 7 12 3 7 -4 8 -3 4 4 -4 7 -8 12 -9 11 -1 -1 -14 -8 -29
-16z"/>
<path d="M1734 459 c-3 -5 -3 -13 0 -18 8 -12 -16 -31 -51 -40 -25 -7 -22 -8
27 -15 30 -4 61 -13 69 -19 11 -10 13 -9 9 3 -2 8 -19 16 -36 18 -18 2 -32 7
-32 11 0 13 81 -5 90 -20 7 -10 12 -10 26 2 16 13 14 15 -17 20 l-34 6 41 2
c22 0 45 -4 52 -11 8 -8 12 -8 12 -1 0 12 -29 28 -44 24 -5 -1 -13 4 -18 11
-6 10 -10 10 -18 -2 -7 -11 -10 -11 -10 -2 0 7 -5 10 -10 7 -6 -4 -8 -10 -6
-14 3 -4 -9 -8 -26 -9 -21 0 -28 2 -19 7 8 5 11 13 7 19 -4 6 5 12 21 14 l28
3 -28 6 c-15 4 -30 2 -33 -2z"/>
<path d="M2867 414 c-3 -3 -23 -6 -44 -7 -21 0 -30 -2 -20 -4 9 -3 17 -8 17
-13 0 -5 14 -2 30 6 17 9 30 17 30 20 0 6 -6 5 -13 -2z"/>
<path d="M1623 353 c2 -67 -5 -82 -28 -63 -14 11 -14 10 -1 -15 8 -16 12 -33
9 -38 -3 -6 -1 -7 6 -3 6 4 9 12 6 17 -4 5 0 18 8 29 13 19 15 15 26 -55 14
-94 14 -115 0 -115 -5 0 -7 -5 -3 -11 4 -8 9 -7 15 2 6 10 9 3 10 -21 0 -19 5
-46 9 -60 l8 -25 1 25 c0 14 -4 44 -8 67 -5 24 -4 40 0 37 5 -3 9 -12 9 -20 0
-8 5 -14 11 -14 5 0 7 -4 4 -10 -3 -5 0 -7 9 -4 12 5 11 9 -5 25 -10 10 -19
26 -19 35 0 8 -4 12 -10 9 -5 -3 -10 3 -10 15 0 11 7 23 15 26 21 8 8 25 -13
17 -13 -5 -15 -3 -5 7 9 10 8 16 -3 27 -17 18 -19 37 -1 27 10 -6 10 -4 0 7
-19 20 -15 31 6 19 11 -5 31 -10 46 -10 34 0 22 -20 -13 -21 l-27 -1 25 -7
c17 -5 21 -9 12 -15 -6 -4 -12 -13 -12 -19 0 -7 5 -4 11 6 6 9 14 15 19 12 5
-3 12 0 16 6 4 8 3 9 -4 5 -21 -13 -13 7 14 35 22 23 25 32 17 55 -10 30 -30
43 -30 20 0 -8 4 -13 8 -11 12 8 20 -27 8 -41 -12 -14 -82 -17 -73 -3 3 5 -1
7 -8 4 -7 -3 -20 0 -28 5 -13 8 -13 13 -2 31 8 11 9 18 4 15 -6 -3 -12 1 -16
9 -7 19 8 19 28 0 9 -9 17 -11 21 -5 3 5 -6 15 -22 21 -15 5 -31 15 -35 22 -3
6 -6 -17 -5 -50z"/>
<path d="M2250 384 c-40 -18 -51 -28 -46 -40 6 -15 4 -15 -11 -3 -11 9 -14 10
-9 2 4 -8 2 -13 -5 -13 -15 0 -35 -26 -54 -69 -21 -48 -13 -48 19 -1 15 23 47
54 71 69 25 16 42 30 39 33 -5 6 40 25 71 30 19 4 19 4 -2 10 -13 3 -42 -4
-73 -18z"/>
<path d="M795 273 c-54 -136 -61 -155 -45 -129 17 26 101 239 96 243 -2 2 -25
-49 -51 -114z"/>
<path d="M1543 356 c-29 -30 -40 -73 -19 -73 11 0 13 4 5 13 -7 8 -7 14 1 19
6 3 7 11 4 17 -5 8 -1 9 12 4 10 -4 15 -4 11 0 -4 4 1 12 10 19 9 7 12 15 7
18 -5 3 -19 -5 -31 -17z"/>
<path d="M745 324 c-27 -31 -49 -47 -67 -48 -14 0 -24 -4 -22 -8 3 -4 18 -6
33 -5 22 2 37 14 65 55 21 28 36 52 34 52 -2 0 -21 -21 -43 -46z"/>
<path d="M1830 352 c0 -7 -4 -10 -10 -7 -17 11 -11 -7 8 -21 24 -19 57 -17 73
4 12 15 12 16 -1 6 -17 -12 -63 -17 -56 -5 3 4 1 13 -5 21 -6 11 -9 12 -9 2z"/>
<path d="M610 343 c0 -5 6 -15 13 -22 10 -11 9 -13 -6 -8 -10 4 -16 3 -13 -1
8 -13 104 -13 112 0 4 7 3 8 -5 4 -16 -10 -68 2 -86 21 -8 8 -15 11 -15 6z"/>
<path d="M1787 278 c-10 -17 -15 -33 -12 -36 3 -3 5 1 6 9 0 8 4 6 10 -6 9
-20 9 -20 6 0 -1 11 3 25 10 30 7 6 9 15 5 22 -5 8 -13 1 -25 -19z"/>
<path d="M1835 290 c-6 -9 1 -14 18 -11 4 0 7 -4 7 -10 0 -18 43 -5 46 14 1 9
-2 15 -7 11 -5 -3 -7 -10 -4 -15 4 -5 -1 -9 -10 -9 -8 0 -18 7 -21 15 -7 17
-20 20 -29 5z"/>
<path d="M2828 287 c-32 -5 -58 -14 -58 -19 0 -6 13 -8 33 -4 17 4 51 9 75 13
45 6 67 21 29 20 -12 -1 -48 -5 -79 -10z"/>
<path d="M129 282 c-2 -6 -26 -14 -54 -17 -56 -8 -71 -15 -34 -16 87 -4 117
-6 126 -12 6 -4 13 -1 16 5 3 9 10 7 23 -7 10 -11 16 -16 12 -11 -17 21 -6 23
59 11 36 -7 78 -9 92 -5 l26 7 -32 7 c-18 4 -33 14 -33 21 0 8 -4 16 -9 19 -5
4 -7 -3 -4 -15 5 -19 2 -20 -46 -18 -28 2 -51 5 -51 8 0 3 -17 7 -37 9 -20 1
-40 7 -44 13 -4 8 -8 8 -10 1z"/>
<path d="M1356 259 c-3 -18 -6 -39 -6 -48 0 -14 2 -14 11 -1 7 11 8 1 4 -35
-5 -37 -4 -46 4 -35 9 11 10 5 6 -25 -4 -22 -3 -57 2 -78 l8 -39 20 23 c11 12
14 19 8 15 -18 -10 -16 9 2 24 8 7 15 18 15 24 0 6 -7 2 -15 -8 -8 -11 -15
-16 -15 -10 0 5 -5 2 -10 -6 -8 -13 -10 -12 -10 3 0 9 4 17 8 17 5 0 5 24 1
53 -20 137 -20 136 3 132 11 -3 17 -1 14 3 -4 4 -11 7 -14 7 -4 0 -12 4 -18 7
-7 5 -14 -4 -18 -23z"/>
<path d="M1524 257 c-3 -9 -4 -22 -1 -29 4 -8 6 -6 6 5 1 9 6 17 12 17 6 0 8
-9 4 -20 -7 -23 -2 -26 14 -7 8 11 6 18 -9 32 -18 16 -20 16 -26 2z"/>
<path d="M2203 245 c-18 -8 -33 -16 -33 -19 0 -6 54 10 77 23 28 16 -5 13 -44
-4z"/>
<path d="M1438 233 c21 -8 13 -26 -9 -20 -12 3 -18 3 -15 0 3 -4 -2 -15 -11
-25 -15 -17 -12 -16 25 3 32 18 39 25 31 36 -6 7 -17 13 -23 12 -7 0 -6 -2 2
-6z"/>
<path d="M2285 220 c25 -8 20 -9 -25 -6 -49 4 -52 3 -28 -8 20 -9 25 -15 18
-26 -6 -8 -9 -22 -9 -30 0 -8 4 -5 9 7 9 22 40 23 40 2 0 -5 5 -9 10 -9 18 0
11 18 -10 25 -37 12 -20 25 31 25 42 0 49 -2 40 -13 -6 -8 -8 -17 -4 -20 3 -4
-1 -7 -11 -7 -9 0 -14 -5 -11 -10 5 -8 11 -7 21 1 7 6 12 15 9 19 -3 5 -1 11
4 15 14 8 80 -21 87 -39 3 -9 10 -14 14 -11 5 3 18 -5 29 -17 12 -12 21 -17
21 -12 0 18 -65 73 -110 93 -25 11 -70 22 -100 25 -43 4 -49 3 -25 -4z"/>
<path d="M1977 209 c-13 -8 -15 -14 -7 -30 6 -10 7 -19 3 -19 -4 0 -2 -5 5
-12 15 -15 16 -31 0 -22 -7 4 -8 3 -4 -5 6 -9 11 -9 23 0 12 11 12 14 -2 21
-8 5 -13 14 -9 19 3 5 0 16 -6 24 -12 15 -3 21 23 16 5 -1 6 3 2 9 -7 12 -6
12 -28 -1z"/>
<path d="M1860 187 c0 -10 -8 -17 -17 -17 -10 0 -31 -7 -47 -15 -42 -22 -63
-19 -74 13 l-11 27 2 -28 c2 -33 36 -46 72 -27 30 16 63 -3 44 -26 -6 -7 -8
-18 -4 -24 3 -5 3 -15 -1 -22 -5 -8 -10 -6 -15 8 -6 15 -8 15 -8 3 -1 -9 6
-22 15 -29 8 -8 14 -9 12 -4 -3 9 4 14 23 14 5 0 8 -4 5 -9 -3 -4 7 -6 22 -2
24 5 24 6 6 9 -43 6 -70 62 -30 62 18 0 58 49 50 62 -4 6 -12 -3 -20 -21 -7
-17 -20 -31 -29 -31 -10 0 -13 5 -9 12 4 6 3 8 -4 4 -6 -3 -13 -2 -17 4 -3 5
3 10 15 10 20 0 38 25 26 37 -3 4 -6 -1 -6 -10z"/>
<path d="M2056 176 c-3 -13 -1 -37 4 -52 6 -15 9 -33 6 -40 -3 -8 0 -16 5 -20
8 -4 9 15 4 62 -9 79 -10 84 -19 50z"/>
<path d="M2268 140 c17 -20 15 -35 -3 -20 -8 7 -15 9 -15 5 0 -4 -7 -1 -17 6
-15 13 -15 12 -5 -7 10 -18 7 -22 -22 -32 -18 -7 -42 -22 -52 -35 -19 -22 -19
-22 1 -5 32 27 91 48 133 48 21 0 47 6 58 14 13 10 14 14 4 13 -8 -2 -21 -6
-27 -10 -17 -11 -35 1 -27 16 4 7 4 9 -1 5 -4 -4 -15 -2 -24 4 -13 10 -14 10
-3 -2z"/>
<path d="M1566 123 c-3 -3 0 -15 6 -27 7 -11 11 -25 10 -29 -1 -5 1 -6 6 -3 5
3 20 -6 33 -20 20 -21 21 -27 9 -35 -13 -9 -13 -10 0 -6 8 2 14 14 13 26 -2
11 2 21 7 21 6 0 10 8 10 17 0 15 -2 14 -14 -3 -8 -10 -18 -15 -22 -11 -5 4
-2 13 6 18 11 8 9 9 -10 4 -20 -6 -23 -5 -12 6 6 7 12 17 12 23 0 5 -6 2 -13
-9 -11 -14 -16 -15 -22 -5 -4 7 -2 16 5 20 9 5 8 9 -3 13 -8 3 -18 3 -21 0z"/>
<path d="M2030 60 c0 -35 2 -61 4 -59 8 7 10 108 3 115 -4 4 -7 -21 -7 -56z"/>
<path d="M727 53 c-21 -31 -29 -49 -19 -40 17 16 67 97 60 97 -2 0 -21 -26
-41 -57z"/>
<path d="M1953 55 c0 -33 2 -45 4 -27 2 18 2 45 0 60 -2 15 -4 0 -4 -33z"/>
<path d="M2399 76 c40 -22 8 -26 -80 -11 -95 17 -102 17 -74 4 16 -8 14 -8
-11 -5 -19 3 -39 -1 -50 -9 -11 -8 -15 -15 -10 -15 5 0 1 -9 -9 -20 -25 -28
-6 -25 35 5 25 18 46 25 80 25 26 0 50 -3 54 -7 10 -11 37 -12 30 -2 -3 5 -1
9 5 9 6 0 13 -11 17 -25 6 -25 24 -35 24 -14 0 7 7 8 18 4 28 -12 82 -13 89
-1 3 6 2 8 -2 3 -5 -4 -17 1 -27 10 -11 10 -19 13 -18 8 5 -23 -2 -25 -30 -10
-28 15 -33 35 -9 35 6 0 8 -4 5 -8 -3 -5 1 -9 9 -9 8 0 15 7 15 15 0 9 -3 13
-6 9 -4 -3 -19 0 -35 8 -35 19 -53 19 -20 1z"/>
<path d="M1740 63 c5 -2 8 -9 5 -13 -3 -5 4 -14 16 -20 13 -7 19 -8 15 -2 -3
6 -2 13 3 16 5 3 12 -6 15 -20 4 -15 9 -24 12 -22 2 3 0 18 -6 33 -8 22 -14
25 -22 17 -15 -15 -29 -15 -25 -1 1 6 -4 13 -11 15 -7 1 -8 0 -2 -3z"/>
</g>
</svg>
